<svg xmlns="http://www.w3.org/2000/svg" version="1.1" xmlns:xlink="http://www.w3.org/1999/xlink" xmlns:svgjs="http://svgjs.dev/svgjs" width="1920" height="1080" preserveAspectRatio="none" viewBox="0 0 1920 1080"><g mask="url(&quot;#SvgjsMask1242&quot;)" fill="none"><path d="M15.76 -50.37L82.45 -11.87L82.45 65.13L15.76 103.63L-50.93 65.13L-50.93 -11.87zM82.45 65.13L149.13 103.63L149.13 180.63L82.45 219.13L15.76 180.63L15.76 103.63zM15.76 642.63L82.45 681.13L82.45 758.13L15.76 796.63L-50.93 758.13L-50.93 681.13zM82.45 758.13L149.13 796.63L149.13 873.63L82.45 912.13L15.76 873.63L15.76 796.63zM349.19 296.13L415.88 334.63L415.88 411.63L349.19 450.13L282.5 411.63L282.5 334.63zM349.19 527.13L415.88 565.63L415.88 642.63L349.19 681.13L282.5 642.63L282.5 565.63zM282.5 873.63L349.19 912.13L349.19 989.13L282.5 1027.63L215.82 989.13L215.82 912.13zM349.19 989.13L415.88 1027.63L415.88 1104.63L349.19 1143.13L282.5 1104.63L282.5 1027.63zM415.88 -50.37L482.56 -11.87L482.56 65.13L415.88 103.63L349.19 65.13L349.19 -11.87zM482.56 296.13L549.25 334.63L549.25 411.63L482.56 450.13L415.88 411.63L415.88 334.63zM482.56 527.13L549.25 565.63L549.25 642.63L482.56 681.13L415.88 642.63L415.88 565.63zM482.56 758.13L549.25 796.63L549.25 873.63L482.56 912.13L415.88 873.63L415.88 796.63zM482.56 989.13L549.25 1027.63L549.25 1104.63L482.56 1143.13L415.88 1104.63L415.88 1027.63zM615.93 65.13L682.62 103.63L682.62 180.63L615.93 219.13L549.25 180.63L549.25 103.63zM615.93 296.13L682.62 334.63L682.62 411.63L615.93 450.13L549.25 411.63L549.25 334.63zM615.93 527.13L682.62 565.63L682.62 642.63L615.93 681.13L549.25 642.63L549.25 565.63zM682.62 180.63L749.3 219.13L749.3 296.13L682.62 334.63L615.93 296.13L615.93 219.13zM815.99 411.63L882.68 450.13L882.68 527.13L815.99 565.63L749.3 527.13L749.3 450.13zM815.99 642.63L882.68 681.13L882.68 758.13L815.99 796.63L749.3 758.13L749.3 681.13zM949.36 411.63L1016.05 450.13L1016.05 527.13L949.36 565.63L882.68 527.13L882.68 450.13zM1016.05 527.13L1082.73 565.63L1082.73 642.63L1016.05 681.13L949.36 642.63L949.36 565.63zM949.36 642.63L1016.05 681.13L1016.05 758.13L949.36 796.63L882.68 758.13L882.68 681.13zM1016.05 758.13L1082.73 796.63L1082.73 873.63L1016.05 912.13L949.36 873.63L949.36 796.63zM1416.16 989.13L1482.85 1027.63L1482.85 1104.63L1416.16 1143.13L1349.48 1104.63L1349.48 1027.63zM1482.85 -50.37L1549.53 -11.87L1549.53 65.13L1482.85 103.63L1416.16 65.13L1416.16 -11.87zM1816.28 65.13L1882.96 103.63L1882.96 180.63L1816.28 219.13L1749.59 180.63L1749.59 103.63zM1816.28 296.13L1882.96 334.63L1882.96 411.63L1816.28 450.13L1749.59 411.63L1749.59 334.63zM1816.28 527.13L1882.96 565.63L1882.96 642.63L1816.28 681.13L1749.59 642.63L1749.59 565.63zM1949.65 65.13L2016.34 103.63L2016.34 180.63L1949.65 219.13L1882.96 180.63L1882.96 103.63zM1882.96 411.63L1949.65 450.13L1949.65 527.13L1882.96 565.63L1816.28 527.13L1816.28 450.13z" stroke="rgba(14, 14, 14, 1)" stroke-width="2"></path><path d="M8.06 -50.37 a7.7 7.7 0 1 0 15.4 0 a7.7 7.7 0 1 0 -15.4 0zM74.75 -11.87 a7.7 7.7 0 1 0 15.4 0 a7.7 7.7 0 1 0 -15.4 0zM74.75 65.13 a7.7 7.7 0 1 0 15.4 0 a7.7 7.7 0 1 0 -15.4 0zM8.06 103.63 a7.7 7.7 0 1 0 15.4 0 a7.7 7.7 0 1 0 -15.4 0zM-58.63 65.13 a7.7 7.7 0 1 0 15.4 0 a7.7 7.7 0 1 0 -15.4 0zM-58.63 -11.87 a7.7 7.7 0 1 0 15.4 0 a7.7 7.7 0 1 0 -15.4 0zM141.43 103.63 a7.7 7.7 0 1 0 15.4 0 a7.7 7.7 0 1 0 -15.4 0zM141.43 180.63 a7.7 7.7 0 1 0 15.4 0 a7.7 7.7 0 1 0 -15.4 0zM74.75 219.13 a7.7 7.7 0 1 0 15.4 0 a7.7 7.7 0 1 0 -15.4 0zM8.06 180.63 a7.7 7.7 0 1 0 15.4 0 a7.7 7.7 0 1 0 -15.4 0zM8.06 642.63 a7.7 7.7 0 1 0 15.4 0 a7.7 7.7 0 1 0 -15.4 0zM74.75 681.13 a7.7 7.7 0 1 0 15.4 0 a7.7 7.7 0 1 0 -15.4 0zM74.75 758.13 a7.7 7.7 0 1 0 15.4 0 a7.7 7.7 0 1 0 -15.4 0zM8.06 796.63 a7.7 7.7 0 1 0 15.4 0 a7.7 7.7 0 1 0 -15.4 0zM-58.63 758.13 a7.7 7.7 0 1 0 15.4 0 a7.7 7.7 0 1 0 -15.4 0zM-58.63 681.13 a7.7 7.7 0 1 0 15.4 0 a7.7 7.7 0 1 0 -15.4 0zM141.43 796.63 a7.7 7.7 0 1 0 15.4 0 a7.7 7.7 0 1 0 -15.4 0zM141.43 873.63 a7.7 7.7 0 1 0 15.4 0 a7.7 7.7 0 1 0 -15.4 0zM74.75 912.13 a7.7 7.7 0 1 0 15.4 0 a7.7 7.7 0 1 0 -15.4 0zM8.06 873.63 a7.7 7.7 0 1 0 15.4 0 a7.7 7.7 0 1 0 -15.4 0zM341.49 296.13 a7.7 7.7 0 1 0 15.4 0 a7.7 7.7 0 1 0 -15.4 0zM408.18 334.63 a7.7 7.7 0 1 0 15.4 0 a7.7 7.7 0 1 0 -15.4 0zM408.18 411.63 a7.7 7.7 0 1 0 15.4 0 a7.7 7.7 0 1 0 -15.4 0zM341.49 450.13 a7.7 7.7 0 1 0 15.4 0 a7.7 7.7 0 1 0 -15.4 0zM274.8 411.63 a7.7 7.7 0 1 0 15.4 0 a7.7 7.7 0 1 0 -15.4 0zM274.8 334.63 a7.7 7.7 0 1 0 15.4 0 a7.7 7.7 0 1 0 -15.4 0zM341.49 527.13 a7.7 7.7 0 1 0 15.4 0 a7.7 7.7 0 1 0 -15.4 0zM408.18 565.63 a7.7 7.7 0 1 0 15.4 0 a7.7 7.7 0 1 0 -15.4 0zM408.18 642.63 a7.7 7.7 0 1 0 15.4 0 a7.7 7.7 0 1 0 -15.4 0zM341.49 681.13 a7.7 7.7 0 1 0 15.4 0 a7.7 7.7 0 1 0 -15.4 0zM274.8 642.63 a7.7 7.7 0 1 0 15.4 0 a7.7 7.7 0 1 0 -15.4 0zM274.8 565.63 a7.7 7.7 0 1 0 15.4 0 a7.7 7.7 0 1 0 -15.4 0zM274.8 873.63 a7.7 7.7 0 1 0 15.4 0 a7.7 7.7 0 1 0 -15.4 0zM341.49 912.13 a7.7 7.7 0 1 0 15.4 0 a7.7 7.7 0 1 0 -15.4 0zM341.49 989.13 a7.7 7.7 0 1 0 15.4 0 a7.7 7.7 0 1 0 -15.4 0zM274.8 1027.63 a7.7 7.7 0 1 0 15.4 0 a7.7 7.7 0 1 0 -15.4 0zM208.12 989.13 a7.7 7.7 0 1 0 15.4 0 a7.7 7.7 0 1 0 -15.4 0zM208.12 912.13 a7.7 7.7 0 1 0 15.4 0 a7.7 7.7 0 1 0 -15.4 0zM408.18 1027.63 a7.7 7.7 0 1 0 15.4 0 a7.7 7.7 0 1 0 -15.4 0zM408.18 1104.63 a7.7 7.7 0 1 0 15.4 0 a7.7 7.7 0 1 0 -15.4 0zM341.49 1143.13 a7.7 7.7 0 1 0 15.4 0 a7.7 7.7 0 1 0 -15.4 0zM274.8 1104.63 a7.7 7.7 0 1 0 15.4 0 a7.7 7.7 0 1 0 -15.4 0zM408.18 -50.37 a7.7 7.7 0 1 0 15.4 0 a7.7 7.7 0 1 0 -15.4 0zM474.86 -11.87 a7.7 7.7 0 1 0 15.4 0 a7.7 7.7 0 1 0 -15.4 0zM474.86 65.13 a7.7 7.7 0 1 0 15.4 0 a7.7 7.7 0 1 0 -15.4 0zM408.18 103.63 a7.7 7.7 0 1 0 15.4 0 a7.7 7.7 0 1 0 -15.4 0zM341.49 65.13 a7.7 7.7 0 1 0 15.4 0 a7.7 7.7 0 1 0 -15.4 0zM341.49 -11.87 a7.7 7.7 0 1 0 15.4 0 a7.7 7.7 0 1 0 -15.4 0zM474.86 296.13 a7.7 7.7 0 1 0 15.4 0 a7.7 7.7 0 1 0 -15.4 0zM541.55 334.63 a7.7 7.7 0 1 0 15.4 0 a7.7 7.7 0 1 0 -15.4 0zM541.55 411.63 a7.7 7.7 0 1 0 15.4 0 a7.7 7.7 0 1 0 -15.4 0zM474.86 450.13 a7.7 7.7 0 1 0 15.4 0 a7.7 7.7 0 1 0 -15.4 0zM474.86 527.13 a7.7 7.7 0 1 0 15.4 0 a7.7 7.7 0 1 0 -15.4 0zM541.55 565.63 a7.7 7.7 0 1 0 15.4 0 a7.7 7.7 0 1 0 -15.4 0zM541.55 642.63 a7.7 7.7 0 1 0 15.4 0 a7.7 7.7 0 1 0 -15.4 0zM474.86 681.13 a7.7 7.7 0 1 0 15.4 0 a7.7 7.7 0 1 0 -15.4 0zM474.86 758.13 a7.7 7.7 0 1 0 15.4 0 a7.7 7.7 0 1 0 -15.4 0zM541.55 796.63 a7.7 7.7 0 1 0 15.4 0 a7.7 7.7 0 1 0 -15.4 0zM541.55 873.63 a7.7 7.7 0 1 0 15.4 0 a7.7 7.7 0 1 0 -15.4 0zM474.86 912.13 a7.7 7.7 0 1 0 15.4 0 a7.7 7.7 0 1 0 -15.4 0zM408.18 873.63 a7.7 7.7 0 1 0 15.4 0 a7.7 7.7 0 1 0 -15.4 0zM408.18 796.63 a7.7 7.7 0 1 0 15.4 0 a7.7 7.7 0 1 0 -15.4 0zM474.86 989.13 a7.7 7.7 0 1 0 15.4 0 a7.7 7.7 0 1 0 -15.4 0zM541.55 1027.63 a7.7 7.7 0 1 0 15.4 0 a7.7 7.7 0 1 0 -15.4 0zM541.55 1104.63 a7.7 7.7 0 1 0 15.4 0 a7.7 7.7 0 1 0 -15.4 0zM474.86 1143.13 a7.7 7.7 0 1 0 15.4 0 a7.7 7.7 0 1 0 -15.4 0zM608.23 65.13 a7.7 7.7 0 1 0 15.4 0 a7.7 7.7 0 1 0 -15.4 0zM674.92 103.63 a7.7 7.7 0 1 0 15.4 0 a7.7 7.7 0 1 0 -15.4 0zM674.92 180.63 a7.7 7.7 0 1 0 15.4 0 a7.7 7.7 0 1 0 -15.4 0zM608.23 219.13 a7.7 7.7 0 1 0 15.4 0 a7.7 7.7 0 1 0 -15.4 0zM541.55 180.63 a7.7 7.7 0 1 0 15.4 0 a7.7 7.7 0 1 0 -15.4 0zM541.55 103.63 a7.7 7.7 0 1 0 15.4 0 a7.7 7.7 0 1 0 -15.4 0zM608.23 296.13 a7.7 7.7 0 1 0 15.4 0 a7.7 7.7 0 1 0 -15.4 0zM674.92 334.63 a7.7 7.7 0 1 0 15.4 0 a7.7 7.7 0 1 0 -15.4 0zM674.92 411.63 a7.7 7.7 0 1 0 15.4 0 a7.7 7.7 0 1 0 -15.4 0zM608.23 450.13 a7.7 7.7 0 1 0 15.4 0 a7.7 7.7 0 1 0 -15.4 0zM608.23 527.13 a7.7 7.7 0 1 0 15.4 0 a7.7 7.7 0 1 0 -15.4 0zM674.92 565.63 a7.7 7.7 0 1 0 15.4 0 a7.7 7.7 0 1 0 -15.4 0zM674.92 642.63 a7.7 7.7 0 1 0 15.4 0 a7.7 7.7 0 1 0 -15.4 0zM608.23 681.13 a7.7 7.7 0 1 0 15.4 0 a7.7 7.7 0 1 0 -15.4 0zM741.6 219.13 a7.7 7.7 0 1 0 15.4 0 a7.7 7.7 0 1 0 -15.4 0zM741.6 296.13 a7.7 7.7 0 1 0 15.4 0 a7.7 7.7 0 1 0 -15.4 0zM808.29 411.63 a7.7 7.7 0 1 0 15.4 0 a7.7 7.7 0 1 0 -15.4 0zM874.98 450.13 a7.7 7.7 0 1 0 15.4 0 a7.7 7.7 0 1 0 -15.4 0zM874.98 527.13 a7.7 7.7 0 1 0 15.4 0 a7.7 7.7 0 1 0 -15.4 0zM808.29 565.63 a7.7 7.7 0 1 0 15.4 0 a7.7 7.7 0 1 0 -15.4 0zM741.6 527.13 a7.7 7.7 0 1 0 15.4 0 a7.7 7.7 0 1 0 -15.4 0zM741.6 450.13 a7.7 7.7 0 1 0 15.4 0 a7.7 7.7 0 1 0 -15.4 0zM808.29 642.63 a7.7 7.7 0 1 0 15.4 0 a7.7 7.7 0 1 0 -15.4 0zM874.98 681.13 a7.7 7.7 0 1 0 15.4 0 a7.7 7.7 0 1 0 -15.4 0zM874.98 758.13 a7.7 7.7 0 1 0 15.4 0 a7.7 7.7 0 1 0 -15.4 0zM808.29 796.63 a7.7 7.7 0 1 0 15.4 0 a7.7 7.7 0 1 0 -15.4 0zM741.6 758.13 a7.7 7.7 0 1 0 15.4 0 a7.7 7.7 0 1 0 -15.4 0zM741.6 681.13 a7.7 7.7 0 1 0 15.4 0 a7.7 7.7 0 1 0 -15.4 0zM941.66 411.63 a7.7 7.7 0 1 0 15.4 0 a7.7 7.7 0 1 0 -15.4 0zM1008.35 450.13 a7.7 7.7 0 1 0 15.4 0 a7.7 7.7 0 1 0 -15.4 0zM1008.35 527.13 a7.7 7.7 0 1 0 15.4 0 a7.7 7.7 0 1 0 -15.4 0zM941.66 565.63 a7.7 7.7 0 1 0 15.4 0 a7.7 7.7 0 1 0 -15.4 0zM1075.03 565.63 a7.7 7.7 0 1 0 15.4 0 a7.7 7.7 0 1 0 -15.4 0zM1075.03 642.63 a7.7 7.7 0 1 0 15.4 0 a7.7 7.7 0 1 0 -15.4 0zM1008.35 681.13 a7.7 7.7 0 1 0 15.4 0 a7.7 7.7 0 1 0 -15.4 0zM941.66 642.63 a7.7 7.7 0 1 0 15.4 0 a7.7 7.7 0 1 0 -15.4 0zM1008.35 758.13 a7.7 7.7 0 1 0 15.4 0 a7.7 7.7 0 1 0 -15.4 0zM941.66 796.63 a7.7 7.7 0 1 0 15.4 0 a7.7 7.7 0 1 0 -15.4 0zM1075.03 796.63 a7.7 7.7 0 1 0 15.4 0 a7.7 7.7 0 1 0 -15.4 0zM1075.03 873.63 a7.7 7.7 0 1 0 15.4 0 a7.7 7.7 0 1 0 -15.4 0zM1008.35 912.13 a7.7 7.7 0 1 0 15.4 0 a7.7 7.7 0 1 0 -15.4 0zM941.66 873.63 a7.7 7.7 0 1 0 15.4 0 a7.7 7.7 0 1 0 -15.4 0zM1408.46 989.13 a7.7 7.7 0 1 0 15.4 0 a7.7 7.7 0 1 0 -15.4 0zM1475.15 1027.63 a7.7 7.7 0 1 0 15.4 0 a7.7 7.7 0 1 0 -15.4 0zM1475.15 1104.63 a7.7 7.7 0 1 0 15.4 0 a7.7 7.7 0 1 0 -15.4 0zM1408.46 1143.13 a7.7 7.7 0 1 0 15.4 0 a7.7 7.7 0 1 0 -15.4 0zM1341.78 1104.63 a7.7 7.7 0 1 0 15.4 0 a7.7 7.7 0 1 0 -15.4 0zM1341.78 1027.63 a7.7 7.7 0 1 0 15.4 0 a7.7 7.7 0 1 0 -15.4 0zM1475.15 -50.37 a7.7 7.7 0 1 0 15.4 0 a7.7 7.7 0 1 0 -15.4 0zM1541.83 -11.87 a7.7 7.7 0 1 0 15.4 0 a7.7 7.7 0 1 0 -15.4 0zM1541.83 65.13 a7.7 7.7 0 1 0 15.4 0 a7.7 7.7 0 1 0 -15.4 0zM1475.15 103.63 a7.7 7.7 0 1 0 15.4 0 a7.7 7.7 0 1 0 -15.4 0zM1408.46 65.13 a7.7 7.7 0 1 0 15.4 0 a7.7 7.7 0 1 0 -15.4 0zM1408.46 -11.87 a7.7 7.7 0 1 0 15.4 0 a7.7 7.7 0 1 0 -15.4 0zM1808.58 65.13 a7.7 7.7 0 1 0 15.4 0 a7.7 7.7 0 1 0 -15.4 0zM1875.26 103.63 a7.7 7.7 0 1 0 15.4 0 a7.7 7.7 0 1 0 -15.4 0zM1875.26 180.63 a7.7 7.7 0 1 0 15.4 0 a7.7 7.7 0 1 0 -15.4 0zM1808.58 219.13 a7.7 7.7 0 1 0 15.4 0 a7.7 7.7 0 1 0 -15.4 0zM1741.89 180.63 a7.7 7.7 0 1 0 15.4 0 a7.7 7.7 0 1 0 -15.4 0zM1741.89 103.63 a7.7 7.7 0 1 0 15.4 0 a7.7 7.7 0 1 0 -15.4 0zM1808.58 296.13 a7.7 7.7 0 1 0 15.4 0 a7.7 7.7 0 1 0 -15.4 0zM1875.26 334.63 a7.7 7.7 0 1 0 15.4 0 a7.7 7.7 0 1 0 -15.4 0zM1875.26 411.63 a7.7 7.7 0 1 0 15.4 0 a7.7 7.7 0 1 0 -15.4 0zM1808.58 450.13 a7.7 7.7 0 1 0 15.4 0 a7.7 7.7 0 1 0 -15.4 0zM1741.89 411.63 a7.7 7.7 0 1 0 15.4 0 a7.7 7.7 0 1 0 -15.4 0zM1741.89 334.63 a7.7 7.7 0 1 0 15.4 0 a7.7 7.7 0 1 0 -15.4 0zM1808.58 527.13 a7.7 7.7 0 1 0 15.4 0 a7.7 7.7 0 1 0 -15.4 0zM1875.26 565.63 a7.7 7.7 0 1 0 15.4 0 a7.7 7.7 0 1 0 -15.4 0zM1875.26 642.63 a7.7 7.7 0 1 0 15.4 0 a7.7 7.7 0 1 0 -15.4 0zM1808.58 681.13 a7.7 7.7 0 1 0 15.4 0 a7.7 7.7 0 1 0 -15.4 0zM1741.89 642.63 a7.7 7.7 0 1 0 15.4 0 a7.7 7.7 0 1 0 -15.4 0zM1741.89 565.63 a7.7 7.7 0 1 0 15.4 0 a7.7 7.7 0 1 0 -15.4 0zM1941.95 65.13 a7.7 7.7 0 1 0 15.4 0 a7.7 7.7 0 1 0 -15.4 0zM2008.64 103.63 a7.7 7.7 0 1 0 15.4 0 a7.7 7.7 0 1 0 -15.4 0zM2008.64 180.63 a7.7 7.7 0 1 0 15.4 0 a7.7 7.7 0 1 0 -15.4 0zM1941.95 219.13 a7.7 7.7 0 1 0 15.4 0 a7.7 7.7 0 1 0 -15.4 0zM1941.95 450.13 a7.7 7.7 0 1 0 15.4 0 a7.7 7.7 0 1 0 -15.4 0zM1941.95 527.13 a7.7 7.7 0 1 0 15.4 0 a7.7 7.7 0 1 0 -15.4 0z" fill="rgba(14, 14, 14, 1)"></path><path d="M281.84 193.91L341.6 228.41L341.6 297.41L281.84 331.91L222.08 297.41L222.08 228.41zM461.11 711.41L520.87 745.91L520.87 814.91L461.11 849.41L401.35 814.91L401.35 745.91zM520.87 400.91L580.63 435.41L580.63 504.41L520.87 538.91L461.11 504.41L461.11 435.41zM640.38 193.91L700.14 228.41L700.14 297.41L640.38 331.91L580.63 297.41L580.63 228.41zM640.38 400.91L700.14 435.41L700.14 504.41L640.38 538.91L580.63 504.41L580.63 435.41zM759.9 400.91L819.66 435.41L819.66 504.41L759.9 538.91L700.14 504.41L700.14 435.41zM819.66 918.41L879.41 952.91L879.41 1021.91L819.66 1056.41L759.9 1021.91L759.9 952.91zM879.41 607.91L939.17 642.41L939.17 711.41L879.41 745.91L819.66 711.41L819.66 642.41zM939.17 918.41L998.93 952.91L998.93 1021.91L939.17 1056.41L879.41 1021.91L879.41 952.91zM1058.69 90.41L1118.44 124.91L1118.44 193.91L1058.69 228.41L998.93 193.91L998.93 124.91zM1118.44 193.91L1178.2 228.41L1178.2 297.41L1118.44 331.91L1058.69 297.41L1058.69 228.41zM1178.2 504.41L1237.96 538.91L1237.96 607.91L1178.2 642.41L1118.44 607.91L1118.44 538.91zM1118.44 814.91L1178.2 849.41L1178.2 918.41L1118.44 952.91L1058.69 918.41L1058.69 849.41zM1417.23 90.41L1476.99 124.91L1476.99 193.91L1417.23 228.41L1357.47 193.91L1357.47 124.91zM1357.47 400.91L1417.23 435.41L1417.23 504.41L1357.47 538.91L1297.72 504.41L1297.72 435.41zM1417.23 711.41L1476.99 745.91L1476.99 814.91L1417.23 849.41L1357.47 814.91L1357.47 745.91zM1357.47 814.91L1417.23 849.41L1417.23 918.41L1357.47 952.91L1297.72 918.41L1297.72 849.41zM1357.47 1021.91L1417.23 1056.41L1417.23 1125.41L1357.47 1159.91L1297.72 1125.41L1297.72 1056.41zM1536.75 297.41L1596.5 331.91L1596.5 400.91L1536.75 435.41L1476.99 400.91L1476.99 331.91zM1476.99 814.91L1536.75 849.41L1536.75 918.41L1476.99 952.91L1417.23 918.41L1417.23 849.41zM1476.99 1021.91L1536.75 1056.41L1536.75 1125.41L1476.99 1159.91L1417.23 1125.41L1417.23 1056.41zM1656.26 504.41L1716.02 538.91L1716.02 607.91L1656.26 642.41L1596.5 607.91L1596.5 538.91zM1596.5 607.91L1656.26 642.41L1656.26 711.41L1596.5 745.91L1536.75 711.41L1536.75 642.41zM1596.5 1021.91L1656.26 1056.41L1656.26 1125.41L1596.5 1159.91L1536.75 1125.41L1536.75 1056.41zM1716.02 -13.09L1775.78 21.41L1775.78 90.41L1716.02 124.91L1656.26 90.41L1656.26 21.41zM1775.78 504.41L1835.53 538.91L1835.53 607.91L1775.78 642.41L1716.02 607.91L1716.02 538.91zM1775.78 918.41L1835.53 952.91L1835.53 1021.91L1775.78 1056.41L1716.02 1021.91L1716.02 952.91zM1716.02 1021.91L1775.78 1056.41L1775.78 1125.41L1716.02 1159.91L1656.26 1125.41L1656.26 1056.41zM1835.53 400.91L1895.29 435.41L1895.29 504.41L1835.53 538.91L1775.78 504.41L1775.78 435.41zM1835.53 607.91L1895.29 642.41L1895.29 711.41L1835.53 745.91L1775.78 711.41L1775.78 642.41zM1955.05 -13.09L2014.81 21.41L2014.81 90.41L1955.05 124.91L1895.29 90.41L1895.29 21.41zM1955.05 400.91L2014.81 435.41L2014.81 504.41L1955.05 538.91L1895.29 504.41L1895.29 435.41zM2014.81 504.41L2074.56 538.91L2074.56 607.91L2014.81 642.41L1955.05 607.91L1955.05 538.91zM1955.05 607.91L2014.81 642.41L2014.81 711.41L1955.05 745.91L1895.29 711.41L1895.29 642.41zM2014.81 711.41L2074.56 745.91L2074.56 814.91L2014.81 849.41L1955.05 814.91L1955.05 745.91z" stroke="rgba(17, 17, 17, 1)" stroke-width="2"></path></g><defs><mask id="SvgjsMask1242"><rect width="1920" height="1080" fill="#ffffff"></rect></mask></defs></svg>