<svg xmlns="http://www.w3.org/2000/svg" version="1.1" xmlns:xlink="http://www.w3.org/1999/xlink" xmlns:svgjs="http://svgjs.dev/svgjs" width="1920" height="1080" preserveAspectRatio="none" viewBox="0 0 1920 1080"><g mask="url(&quot;#SvgjsMask1245&quot;)" fill="none"><path d="M121.11 522.49L187.79 560.99L187.79 637.99L121.11 676.49L54.42 637.99L54.42 560.99zM254.48 60.49L321.16 98.99L321.16 175.99L254.48 214.49L187.79 175.99L187.79 98.99zM187.79 406.99L254.48 445.49L254.48 522.49L187.79 560.99L121.11 522.49L121.11 445.49zM254.48 522.49L321.16 560.99L321.16 637.99L254.48 676.49L187.79 637.99L187.79 560.99zM187.79 868.99L254.48 907.49L254.48 984.49L187.79 1022.99L121.11 984.49L121.11 907.49zM321.16 175.99L387.85 214.49L387.85 291.49L321.16 329.99L254.48 291.49L254.48 214.49zM387.85 984.49L454.54 1022.99L454.54 1099.99L387.85 1138.49L321.16 1099.99L321.16 1022.99zM454.54 -55.01L521.22 -16.51L521.22 60.49L454.54 98.99L387.85 60.49L387.85 -16.51zM454.54 175.99L521.22 214.49L521.22 291.49L454.54 329.99L387.85 291.49L387.85 214.49zM521.22 522.49L587.91 560.99L587.91 637.99L521.22 676.49L454.54 637.99L454.54 560.99zM521.22 753.49L587.91 791.99L587.91 868.99L521.22 907.49L454.54 868.99L454.54 791.99zM587.91 175.99L654.59 214.49L654.59 291.49L587.91 329.99L521.22 291.49L521.22 214.49zM587.91 406.99L654.59 445.49L654.59 522.49L587.91 560.99L521.22 522.49L521.22 445.49zM654.59 522.49L721.28 560.99L721.28 637.99L654.59 676.49L587.91 637.99L587.91 560.99zM654.59 753.49L721.28 791.99L721.28 868.99L654.59 907.49L587.91 868.99L587.91 791.99zM587.91 868.99L654.59 907.49L654.59 984.49L587.91 1022.99L521.22 984.49L521.22 907.49zM721.28 406.99L787.96 445.49L787.96 522.49L721.28 560.99L654.59 522.49L654.59 445.49zM787.96 522.49L854.65 560.99L854.65 637.99L787.96 676.49L721.28 637.99L721.28 560.99zM787.96 753.49L854.65 791.99L854.65 868.99L787.96 907.49L721.28 868.99L721.28 791.99zM854.65 -55.01L921.34 -16.51L921.34 60.49L854.65 98.99L787.96 60.49L787.96 -16.51zM921.34 291.49L988.02 329.99L988.02 406.99L921.34 445.49L854.65 406.99L854.65 329.99zM988.02 -55.01L1054.71 -16.51L1054.71 60.49L988.02 98.99L921.34 60.49L921.34 -16.51zM1054.71 291.49L1121.39 329.99L1121.39 406.99L1054.71 445.49L988.02 406.99L988.02 329.99zM1054.71 522.49L1121.39 560.99L1121.39 637.99L1054.71 676.49L988.02 637.99L988.02 560.99zM1121.39 175.99L1188.08 214.49L1188.08 291.49L1121.39 329.99L1054.71 291.49L1054.71 214.49zM1254.77 -55.01L1321.45 -16.51L1321.45 60.49L1254.77 98.99L1188.08 60.49L1188.08 -16.51zM1254.77 175.99L1321.45 214.49L1321.45 291.49L1254.77 329.99L1188.08 291.49L1188.08 214.49zM1321.45 291.49L1388.14 329.99L1388.14 406.99L1321.45 445.49L1254.77 406.99L1254.77 329.99zM1321.45 522.49L1388.14 560.99L1388.14 637.99L1321.45 676.49L1254.77 637.99L1254.77 560.99zM1254.77 637.99L1321.45 676.49L1321.45 753.49L1254.77 791.99L1188.08 753.49L1188.08 676.49zM1321.45 984.49L1388.14 1022.99L1388.14 1099.99L1321.45 1138.49L1254.77 1099.99L1254.77 1022.99zM1454.82 753.49L1521.51 791.99L1521.51 868.99L1454.82 907.49L1388.14 868.99L1388.14 791.99zM1588.19 60.49L1654.88 98.99L1654.88 175.99L1588.19 214.49L1521.51 175.99L1521.51 98.99zM1521.51 175.99L1588.19 214.49L1588.19 291.49L1521.51 329.99L1454.82 291.49L1454.82 214.49zM1521.51 406.99L1588.19 445.49L1588.19 522.49L1521.51 560.99L1454.82 522.49L1454.82 445.49zM1588.19 522.49L1654.88 560.99L1654.88 637.99L1588.19 676.49L1521.51 637.99L1521.51 560.99zM1521.51 637.99L1588.19 676.49L1588.19 753.49L1521.51 791.99L1454.82 753.49L1454.82 676.49zM1721.57 60.49L1788.25 98.99L1788.25 175.99L1721.57 214.49L1654.88 175.99L1654.88 98.99zM1654.88 637.99L1721.57 676.49L1721.57 753.49L1654.88 791.99L1588.19 753.49L1588.19 676.49zM1721.57 984.49L1788.25 1022.99L1788.25 1099.99L1721.57 1138.49L1654.88 1099.99L1654.88 1022.99zM1788.25 -55.01L1854.94 -16.51L1854.94 60.49L1788.25 98.99L1721.57 60.49L1721.57 -16.51zM1854.94 60.49L1921.62 98.99L1921.62 175.99L1854.94 214.49L1788.25 175.99L1788.25 98.99zM1854.94 291.49L1921.62 329.99L1921.62 406.99L1854.94 445.49L1788.25 406.99L1788.25 329.99zM1854.94 753.49L1921.62 791.99L1921.62 868.99L1854.94 907.49L1788.25 868.99L1788.25 791.99zM1921.62 -55.01L1988.31 -16.51L1988.31 60.49L1921.62 98.99L1854.94 60.49L1854.94 -16.51zM1988.31 291.49L2055 329.99L2055 406.99L1988.31 445.49L1921.62 406.99L1921.62 329.99z" stroke="rgba(14, 14, 14, 1)" stroke-width="2"></path><path d="M113.41 522.49 a7.7 7.7 0 1 0 15.4 0 a7.7 7.7 0 1 0 -15.4 0zM180.09 560.99 a7.7 7.7 0 1 0 15.4 0 a7.7 7.7 0 1 0 -15.4 0zM180.09 637.99 a7.7 7.7 0 1 0 15.4 0 a7.7 7.7 0 1 0 -15.4 0zM113.41 676.49 a7.7 7.7 0 1 0 15.4 0 a7.7 7.7 0 1 0 -15.4 0zM46.72 637.99 a7.7 7.7 0 1 0 15.4 0 a7.7 7.7 0 1 0 -15.4 0zM46.72 560.99 a7.7 7.7 0 1 0 15.4 0 a7.7 7.7 0 1 0 -15.4 0zM246.78 60.49 a7.7 7.7 0 1 0 15.4 0 a7.7 7.7 0 1 0 -15.4 0zM313.46 98.99 a7.7 7.7 0 1 0 15.4 0 a7.7 7.7 0 1 0 -15.4 0zM313.46 175.99 a7.7 7.7 0 1 0 15.4 0 a7.7 7.7 0 1 0 -15.4 0zM246.78 214.49 a7.7 7.7 0 1 0 15.4 0 a7.7 7.7 0 1 0 -15.4 0zM180.09 175.99 a7.7 7.7 0 1 0 15.4 0 a7.7 7.7 0 1 0 -15.4 0zM180.09 98.99 a7.7 7.7 0 1 0 15.4 0 a7.7 7.7 0 1 0 -15.4 0zM180.09 406.99 a7.7 7.7 0 1 0 15.4 0 a7.7 7.7 0 1 0 -15.4 0zM246.78 445.49 a7.7 7.7 0 1 0 15.4 0 a7.7 7.7 0 1 0 -15.4 0zM246.78 522.49 a7.7 7.7 0 1 0 15.4 0 a7.7 7.7 0 1 0 -15.4 0zM113.41 445.49 a7.7 7.7 0 1 0 15.4 0 a7.7 7.7 0 1 0 -15.4 0zM313.46 560.99 a7.7 7.7 0 1 0 15.4 0 a7.7 7.7 0 1 0 -15.4 0zM313.46 637.99 a7.7 7.7 0 1 0 15.4 0 a7.7 7.7 0 1 0 -15.4 0zM246.78 676.49 a7.7 7.7 0 1 0 15.4 0 a7.7 7.7 0 1 0 -15.4 0zM180.09 868.99 a7.7 7.7 0 1 0 15.4 0 a7.7 7.7 0 1 0 -15.4 0zM246.78 907.49 a7.7 7.7 0 1 0 15.4 0 a7.7 7.7 0 1 0 -15.4 0zM246.78 984.49 a7.7 7.7 0 1 0 15.4 0 a7.7 7.7 0 1 0 -15.4 0zM180.09 1022.99 a7.7 7.7 0 1 0 15.4 0 a7.7 7.7 0 1 0 -15.4 0zM113.41 984.49 a7.7 7.7 0 1 0 15.4 0 a7.7 7.7 0 1 0 -15.4 0zM113.41 907.49 a7.7 7.7 0 1 0 15.4 0 a7.7 7.7 0 1 0 -15.4 0zM380.15 214.49 a7.7 7.7 0 1 0 15.4 0 a7.7 7.7 0 1 0 -15.4 0zM380.15 291.49 a7.7 7.7 0 1 0 15.4 0 a7.7 7.7 0 1 0 -15.4 0zM313.46 329.99 a7.7 7.7 0 1 0 15.4 0 a7.7 7.7 0 1 0 -15.4 0zM246.78 291.49 a7.7 7.7 0 1 0 15.4 0 a7.7 7.7 0 1 0 -15.4 0zM380.15 984.49 a7.7 7.7 0 1 0 15.4 0 a7.7 7.7 0 1 0 -15.4 0zM446.84 1022.99 a7.7 7.7 0 1 0 15.4 0 a7.7 7.7 0 1 0 -15.4 0zM446.84 1099.99 a7.7 7.7 0 1 0 15.4 0 a7.7 7.7 0 1 0 -15.4 0zM380.15 1138.49 a7.7 7.7 0 1 0 15.4 0 a7.7 7.7 0 1 0 -15.4 0zM313.46 1099.99 a7.7 7.7 0 1 0 15.4 0 a7.7 7.7 0 1 0 -15.4 0zM313.46 1022.99 a7.7 7.7 0 1 0 15.4 0 a7.7 7.7 0 1 0 -15.4 0zM446.84 -55.01 a7.7 7.7 0 1 0 15.4 0 a7.7 7.7 0 1 0 -15.4 0zM513.52 -16.51 a7.7 7.7 0 1 0 15.4 0 a7.7 7.7 0 1 0 -15.4 0zM513.52 60.49 a7.7 7.7 0 1 0 15.4 0 a7.7 7.7 0 1 0 -15.4 0zM446.84 98.99 a7.7 7.7 0 1 0 15.4 0 a7.7 7.7 0 1 0 -15.4 0zM380.15 60.49 a7.7 7.7 0 1 0 15.4 0 a7.7 7.7 0 1 0 -15.4 0zM380.15 -16.51 a7.7 7.7 0 1 0 15.4 0 a7.7 7.7 0 1 0 -15.4 0zM446.84 175.99 a7.7 7.7 0 1 0 15.4 0 a7.7 7.7 0 1 0 -15.4 0zM513.52 214.49 a7.7 7.7 0 1 0 15.4 0 a7.7 7.7 0 1 0 -15.4 0zM513.52 291.49 a7.7 7.7 0 1 0 15.4 0 a7.7 7.7 0 1 0 -15.4 0zM446.84 329.99 a7.7 7.7 0 1 0 15.4 0 a7.7 7.7 0 1 0 -15.4 0zM513.52 522.49 a7.7 7.7 0 1 0 15.4 0 a7.7 7.7 0 1 0 -15.4 0zM580.21 560.99 a7.7 7.7 0 1 0 15.4 0 a7.7 7.7 0 1 0 -15.4 0zM580.21 637.99 a7.7 7.7 0 1 0 15.4 0 a7.7 7.7 0 1 0 -15.4 0zM513.52 676.49 a7.7 7.7 0 1 0 15.4 0 a7.7 7.7 0 1 0 -15.4 0zM446.84 637.99 a7.7 7.7 0 1 0 15.4 0 a7.7 7.7 0 1 0 -15.4 0zM446.84 560.99 a7.7 7.7 0 1 0 15.4 0 a7.7 7.7 0 1 0 -15.4 0zM513.52 753.49 a7.7 7.7 0 1 0 15.4 0 a7.7 7.7 0 1 0 -15.4 0zM580.21 791.99 a7.7 7.7 0 1 0 15.4 0 a7.7 7.7 0 1 0 -15.4 0zM580.21 868.99 a7.7 7.7 0 1 0 15.4 0 a7.7 7.7 0 1 0 -15.4 0zM513.52 907.49 a7.7 7.7 0 1 0 15.4 0 a7.7 7.7 0 1 0 -15.4 0zM446.84 868.99 a7.7 7.7 0 1 0 15.4 0 a7.7 7.7 0 1 0 -15.4 0zM446.84 791.99 a7.7 7.7 0 1 0 15.4 0 a7.7 7.7 0 1 0 -15.4 0zM580.21 175.99 a7.7 7.7 0 1 0 15.4 0 a7.7 7.7 0 1 0 -15.4 0zM646.89 214.49 a7.7 7.7 0 1 0 15.4 0 a7.7 7.7 0 1 0 -15.4 0zM646.89 291.49 a7.7 7.7 0 1 0 15.4 0 a7.7 7.7 0 1 0 -15.4 0zM580.21 329.99 a7.7 7.7 0 1 0 15.4 0 a7.7 7.7 0 1 0 -15.4 0zM580.21 406.99 a7.7 7.7 0 1 0 15.4 0 a7.7 7.7 0 1 0 -15.4 0zM646.89 445.49 a7.7 7.7 0 1 0 15.4 0 a7.7 7.7 0 1 0 -15.4 0zM646.89 522.49 a7.7 7.7 0 1 0 15.4 0 a7.7 7.7 0 1 0 -15.4 0zM513.52 445.49 a7.7 7.7 0 1 0 15.4 0 a7.7 7.7 0 1 0 -15.4 0zM713.58 560.99 a7.7 7.7 0 1 0 15.4 0 a7.7 7.7 0 1 0 -15.4 0zM713.58 637.99 a7.7 7.7 0 1 0 15.4 0 a7.7 7.7 0 1 0 -15.4 0zM646.89 676.49 a7.7 7.7 0 1 0 15.4 0 a7.7 7.7 0 1 0 -15.4 0zM646.89 753.49 a7.7 7.7 0 1 0 15.4 0 a7.7 7.7 0 1 0 -15.4 0zM713.58 791.99 a7.7 7.7 0 1 0 15.4 0 a7.7 7.7 0 1 0 -15.4 0zM713.58 868.99 a7.7 7.7 0 1 0 15.4 0 a7.7 7.7 0 1 0 -15.4 0zM646.89 907.49 a7.7 7.7 0 1 0 15.4 0 a7.7 7.7 0 1 0 -15.4 0zM646.89 984.49 a7.7 7.7 0 1 0 15.4 0 a7.7 7.7 0 1 0 -15.4 0zM580.21 1022.99 a7.7 7.7 0 1 0 15.4 0 a7.7 7.7 0 1 0 -15.4 0zM513.52 984.49 a7.7 7.7 0 1 0 15.4 0 a7.7 7.7 0 1 0 -15.4 0zM713.58 406.99 a7.7 7.7 0 1 0 15.4 0 a7.7 7.7 0 1 0 -15.4 0zM780.26 445.49 a7.7 7.7 0 1 0 15.4 0 a7.7 7.7 0 1 0 -15.4 0zM780.26 522.49 a7.7 7.7 0 1 0 15.4 0 a7.7 7.7 0 1 0 -15.4 0zM846.95 560.99 a7.7 7.7 0 1 0 15.4 0 a7.7 7.7 0 1 0 -15.4 0zM846.95 637.99 a7.7 7.7 0 1 0 15.4 0 a7.7 7.7 0 1 0 -15.4 0zM780.26 676.49 a7.7 7.7 0 1 0 15.4 0 a7.7 7.7 0 1 0 -15.4 0zM780.26 753.49 a7.7 7.7 0 1 0 15.4 0 a7.7 7.7 0 1 0 -15.4 0zM846.95 791.99 a7.7 7.7 0 1 0 15.4 0 a7.7 7.7 0 1 0 -15.4 0zM846.95 868.99 a7.7 7.7 0 1 0 15.4 0 a7.7 7.7 0 1 0 -15.4 0zM780.26 907.49 a7.7 7.7 0 1 0 15.4 0 a7.7 7.7 0 1 0 -15.4 0zM846.95 -55.01 a7.7 7.7 0 1 0 15.4 0 a7.7 7.7 0 1 0 -15.4 0zM913.64 -16.51 a7.7 7.7 0 1 0 15.4 0 a7.7 7.7 0 1 0 -15.4 0zM913.64 60.49 a7.7 7.7 0 1 0 15.4 0 a7.7 7.7 0 1 0 -15.4 0zM846.95 98.99 a7.7 7.7 0 1 0 15.4 0 a7.7 7.7 0 1 0 -15.4 0zM780.26 60.49 a7.7 7.7 0 1 0 15.4 0 a7.7 7.7 0 1 0 -15.4 0zM780.26 -16.51 a7.7 7.7 0 1 0 15.4 0 a7.7 7.7 0 1 0 -15.4 0zM913.64 291.49 a7.7 7.7 0 1 0 15.4 0 a7.7 7.7 0 1 0 -15.4 0zM980.32 329.99 a7.7 7.7 0 1 0 15.4 0 a7.7 7.7 0 1 0 -15.4 0zM980.32 406.99 a7.7 7.7 0 1 0 15.4 0 a7.7 7.7 0 1 0 -15.4 0zM913.64 445.49 a7.7 7.7 0 1 0 15.4 0 a7.7 7.7 0 1 0 -15.4 0zM846.95 406.99 a7.7 7.7 0 1 0 15.4 0 a7.7 7.7 0 1 0 -15.4 0zM846.95 329.99 a7.7 7.7 0 1 0 15.4 0 a7.7 7.7 0 1 0 -15.4 0zM980.32 -55.01 a7.7 7.7 0 1 0 15.4 0 a7.7 7.7 0 1 0 -15.4 0zM1047.01 -16.51 a7.7 7.7 0 1 0 15.4 0 a7.7 7.7 0 1 0 -15.4 0zM1047.01 60.49 a7.7 7.7 0 1 0 15.4 0 a7.7 7.7 0 1 0 -15.4 0zM980.32 98.99 a7.7 7.7 0 1 0 15.4 0 a7.7 7.7 0 1 0 -15.4 0zM1047.01 291.49 a7.7 7.7 0 1 0 15.4 0 a7.7 7.7 0 1 0 -15.4 0zM1113.69 329.99 a7.7 7.7 0 1 0 15.4 0 a7.7 7.7 0 1 0 -15.4 0zM1113.69 406.99 a7.7 7.7 0 1 0 15.4 0 a7.7 7.7 0 1 0 -15.4 0zM1047.01 445.49 a7.7 7.7 0 1 0 15.4 0 a7.7 7.7 0 1 0 -15.4 0zM1047.01 522.49 a7.7 7.7 0 1 0 15.4 0 a7.7 7.7 0 1 0 -15.4 0zM1113.69 560.99 a7.7 7.7 0 1 0 15.4 0 a7.7 7.7 0 1 0 -15.4 0zM1113.69 637.99 a7.7 7.7 0 1 0 15.4 0 a7.7 7.7 0 1 0 -15.4 0zM1047.01 676.49 a7.7 7.7 0 1 0 15.4 0 a7.7 7.7 0 1 0 -15.4 0zM980.32 637.99 a7.7 7.7 0 1 0 15.4 0 a7.7 7.7 0 1 0 -15.4 0zM980.32 560.99 a7.7 7.7 0 1 0 15.4 0 a7.7 7.7 0 1 0 -15.4 0zM1113.69 175.99 a7.7 7.7 0 1 0 15.4 0 a7.7 7.7 0 1 0 -15.4 0zM1180.38 214.49 a7.7 7.7 0 1 0 15.4 0 a7.7 7.7 0 1 0 -15.4 0zM1180.38 291.49 a7.7 7.7 0 1 0 15.4 0 a7.7 7.7 0 1 0 -15.4 0zM1047.01 214.49 a7.7 7.7 0 1 0 15.4 0 a7.7 7.7 0 1 0 -15.4 0zM1247.07 -55.01 a7.7 7.7 0 1 0 15.4 0 a7.7 7.7 0 1 0 -15.4 0zM1313.75 -16.51 a7.7 7.7 0 1 0 15.4 0 a7.7 7.7 0 1 0 -15.4 0zM1313.75 60.49 a7.7 7.7 0 1 0 15.4 0 a7.7 7.7 0 1 0 -15.4 0zM1247.07 98.99 a7.7 7.7 0 1 0 15.4 0 a7.7 7.7 0 1 0 -15.4 0zM1180.38 60.49 a7.7 7.7 0 1 0 15.4 0 a7.7 7.7 0 1 0 -15.4 0zM1180.38 -16.51 a7.7 7.7 0 1 0 15.4 0 a7.7 7.7 0 1 0 -15.4 0zM1247.07 175.99 a7.7 7.7 0 1 0 15.4 0 a7.7 7.7 0 1 0 -15.4 0zM1313.75 214.49 a7.7 7.7 0 1 0 15.4 0 a7.7 7.7 0 1 0 -15.4 0zM1313.75 291.49 a7.7 7.7 0 1 0 15.4 0 a7.7 7.7 0 1 0 -15.4 0zM1247.07 329.99 a7.7 7.7 0 1 0 15.4 0 a7.7 7.7 0 1 0 -15.4 0zM1380.44 329.99 a7.7 7.7 0 1 0 15.4 0 a7.7 7.7 0 1 0 -15.4 0zM1380.44 406.99 a7.7 7.7 0 1 0 15.4 0 a7.7 7.7 0 1 0 -15.4 0zM1313.75 445.49 a7.7 7.7 0 1 0 15.4 0 a7.7 7.7 0 1 0 -15.4 0zM1247.07 406.99 a7.7 7.7 0 1 0 15.4 0 a7.7 7.7 0 1 0 -15.4 0zM1313.75 522.49 a7.7 7.7 0 1 0 15.4 0 a7.7 7.7 0 1 0 -15.4 0zM1380.44 560.99 a7.7 7.7 0 1 0 15.4 0 a7.7 7.7 0 1 0 -15.4 0zM1380.44 637.99 a7.7 7.7 0 1 0 15.4 0 a7.7 7.7 0 1 0 -15.4 0zM1313.75 676.49 a7.7 7.7 0 1 0 15.4 0 a7.7 7.7 0 1 0 -15.4 0zM1247.07 637.99 a7.7 7.7 0 1 0 15.4 0 a7.7 7.7 0 1 0 -15.4 0zM1247.07 560.99 a7.7 7.7 0 1 0 15.4 0 a7.7 7.7 0 1 0 -15.4 0zM1313.75 753.49 a7.7 7.7 0 1 0 15.4 0 a7.7 7.7 0 1 0 -15.4 0zM1247.07 791.99 a7.7 7.7 0 1 0 15.4 0 a7.7 7.7 0 1 0 -15.4 0zM1180.38 753.49 a7.7 7.7 0 1 0 15.4 0 a7.7 7.7 0 1 0 -15.4 0zM1180.38 676.49 a7.7 7.7 0 1 0 15.4 0 a7.7 7.7 0 1 0 -15.4 0zM1313.75 984.49 a7.7 7.7 0 1 0 15.4 0 a7.7 7.7 0 1 0 -15.4 0zM1380.44 1022.99 a7.7 7.7 0 1 0 15.4 0 a7.7 7.7 0 1 0 -15.4 0zM1380.44 1099.99 a7.7 7.7 0 1 0 15.4 0 a7.7 7.7 0 1 0 -15.4 0zM1313.75 1138.49 a7.7 7.7 0 1 0 15.4 0 a7.7 7.7 0 1 0 -15.4 0zM1247.07 1099.99 a7.7 7.7 0 1 0 15.4 0 a7.7 7.7 0 1 0 -15.4 0zM1247.07 1022.99 a7.7 7.7 0 1 0 15.4 0 a7.7 7.7 0 1 0 -15.4 0zM1447.12 753.49 a7.7 7.7 0 1 0 15.4 0 a7.7 7.7 0 1 0 -15.4 0zM1513.81 791.99 a7.7 7.7 0 1 0 15.4 0 a7.7 7.7 0 1 0 -15.4 0zM1513.81 868.99 a7.7 7.7 0 1 0 15.4 0 a7.7 7.7 0 1 0 -15.4 0zM1447.12 907.49 a7.7 7.7 0 1 0 15.4 0 a7.7 7.7 0 1 0 -15.4 0zM1380.44 868.99 a7.7 7.7 0 1 0 15.4 0 a7.7 7.7 0 1 0 -15.4 0zM1380.44 791.99 a7.7 7.7 0 1 0 15.4 0 a7.7 7.7 0 1 0 -15.4 0zM1580.49 60.49 a7.7 7.7 0 1 0 15.4 0 a7.7 7.7 0 1 0 -15.4 0zM1647.18 98.99 a7.7 7.7 0 1 0 15.4 0 a7.7 7.7 0 1 0 -15.4 0zM1647.18 175.99 a7.7 7.7 0 1 0 15.4 0 a7.7 7.7 0 1 0 -15.4 0zM1580.49 214.49 a7.7 7.7 0 1 0 15.4 0 a7.7 7.7 0 1 0 -15.4 0zM1513.81 175.99 a7.7 7.7 0 1 0 15.4 0 a7.7 7.7 0 1 0 -15.4 0zM1513.81 98.99 a7.7 7.7 0 1 0 15.4 0 a7.7 7.7 0 1 0 -15.4 0zM1580.49 291.49 a7.7 7.7 0 1 0 15.4 0 a7.7 7.7 0 1 0 -15.4 0zM1513.81 329.99 a7.7 7.7 0 1 0 15.4 0 a7.7 7.7 0 1 0 -15.4 0zM1447.12 291.49 a7.7 7.7 0 1 0 15.4 0 a7.7 7.7 0 1 0 -15.4 0zM1447.12 214.49 a7.7 7.7 0 1 0 15.4 0 a7.7 7.7 0 1 0 -15.4 0zM1513.81 406.99 a7.7 7.7 0 1 0 15.4 0 a7.7 7.7 0 1 0 -15.4 0zM1580.49 445.49 a7.7 7.7 0 1 0 15.4 0 a7.7 7.7 0 1 0 -15.4 0zM1580.49 522.49 a7.7 7.7 0 1 0 15.4 0 a7.7 7.7 0 1 0 -15.4 0zM1513.81 560.99 a7.7 7.7 0 1 0 15.4 0 a7.7 7.7 0 1 0 -15.4 0zM1447.12 522.49 a7.7 7.7 0 1 0 15.4 0 a7.7 7.7 0 1 0 -15.4 0zM1447.12 445.49 a7.7 7.7 0 1 0 15.4 0 a7.7 7.7 0 1 0 -15.4 0zM1647.18 560.99 a7.7 7.7 0 1 0 15.4 0 a7.7 7.7 0 1 0 -15.4 0zM1647.18 637.99 a7.7 7.7 0 1 0 15.4 0 a7.7 7.7 0 1 0 -15.4 0zM1580.49 676.49 a7.7 7.7 0 1 0 15.4 0 a7.7 7.7 0 1 0 -15.4 0zM1513.81 637.99 a7.7 7.7 0 1 0 15.4 0 a7.7 7.7 0 1 0 -15.4 0zM1580.49 753.49 a7.7 7.7 0 1 0 15.4 0 a7.7 7.7 0 1 0 -15.4 0zM1447.12 676.49 a7.7 7.7 0 1 0 15.4 0 a7.7 7.7 0 1 0 -15.4 0zM1713.87 60.49 a7.7 7.7 0 1 0 15.4 0 a7.7 7.7 0 1 0 -15.4 0zM1780.55 98.99 a7.7 7.7 0 1 0 15.4 0 a7.7 7.7 0 1 0 -15.4 0zM1780.55 175.99 a7.7 7.7 0 1 0 15.4 0 a7.7 7.7 0 1 0 -15.4 0zM1713.87 214.49 a7.7 7.7 0 1 0 15.4 0 a7.7 7.7 0 1 0 -15.4 0zM1713.87 676.49 a7.7 7.7 0 1 0 15.4 0 a7.7 7.7 0 1 0 -15.4 0zM1713.87 753.49 a7.7 7.7 0 1 0 15.4 0 a7.7 7.7 0 1 0 -15.4 0zM1647.18 791.99 a7.7 7.7 0 1 0 15.4 0 a7.7 7.7 0 1 0 -15.4 0zM1713.87 984.49 a7.7 7.7 0 1 0 15.4 0 a7.7 7.7 0 1 0 -15.4 0zM1780.55 1022.99 a7.7 7.7 0 1 0 15.4 0 a7.7 7.7 0 1 0 -15.4 0zM1780.55 1099.99 a7.7 7.7 0 1 0 15.4 0 a7.7 7.7 0 1 0 -15.4 0zM1713.87 1138.49 a7.7 7.7 0 1 0 15.4 0 a7.7 7.7 0 1 0 -15.4 0zM1647.18 1099.99 a7.7 7.7 0 1 0 15.4 0 a7.7 7.7 0 1 0 -15.4 0zM1647.18 1022.99 a7.7 7.7 0 1 0 15.4 0 a7.7 7.7 0 1 0 -15.4 0zM1780.55 -55.01 a7.7 7.7 0 1 0 15.4 0 a7.7 7.7 0 1 0 -15.4 0zM1847.24 -16.51 a7.7 7.7 0 1 0 15.4 0 a7.7 7.7 0 1 0 -15.4 0zM1847.24 60.49 a7.7 7.7 0 1 0 15.4 0 a7.7 7.7 0 1 0 -15.4 0zM1713.87 -16.51 a7.7 7.7 0 1 0 15.4 0 a7.7 7.7 0 1 0 -15.4 0zM1913.92 98.99 a7.7 7.7 0 1 0 15.4 0 a7.7 7.7 0 1 0 -15.4 0zM1913.92 175.99 a7.7 7.7 0 1 0 15.4 0 a7.7 7.7 0 1 0 -15.4 0zM1847.24 214.49 a7.7 7.7 0 1 0 15.4 0 a7.7 7.7 0 1 0 -15.4 0zM1847.24 291.49 a7.7 7.7 0 1 0 15.4 0 a7.7 7.7 0 1 0 -15.4 0zM1913.92 329.99 a7.7 7.7 0 1 0 15.4 0 a7.7 7.7 0 1 0 -15.4 0zM1913.92 406.99 a7.7 7.7 0 1 0 15.4 0 a7.7 7.7 0 1 0 -15.4 0zM1847.24 445.49 a7.7 7.7 0 1 0 15.4 0 a7.7 7.7 0 1 0 -15.4 0zM1780.55 406.99 a7.7 7.7 0 1 0 15.4 0 a7.7 7.7 0 1 0 -15.4 0zM1780.55 329.99 a7.7 7.7 0 1 0 15.4 0 a7.7 7.7 0 1 0 -15.4 0zM1847.24 753.49 a7.7 7.7 0 1 0 15.4 0 a7.7 7.7 0 1 0 -15.4 0zM1913.92 791.99 a7.7 7.7 0 1 0 15.4 0 a7.7 7.7 0 1 0 -15.4 0zM1913.92 868.99 a7.7 7.7 0 1 0 15.4 0 a7.7 7.7 0 1 0 -15.4 0zM1847.24 907.49 a7.7 7.7 0 1 0 15.4 0 a7.7 7.7 0 1 0 -15.4 0zM1780.55 868.99 a7.7 7.7 0 1 0 15.4 0 a7.7 7.7 0 1 0 -15.4 0zM1780.55 791.99 a7.7 7.7 0 1 0 15.4 0 a7.7 7.7 0 1 0 -15.4 0zM1913.92 -55.01 a7.7 7.7 0 1 0 15.4 0 a7.7 7.7 0 1 0 -15.4 0zM1980.61 -16.51 a7.7 7.7 0 1 0 15.4 0 a7.7 7.7 0 1 0 -15.4 0zM1980.61 60.49 a7.7 7.7 0 1 0 15.4 0 a7.7 7.7 0 1 0 -15.4 0zM1980.61 291.49 a7.7 7.7 0 1 0 15.4 0 a7.7 7.7 0 1 0 -15.4 0zM2047.3 329.99 a7.7 7.7 0 1 0 15.4 0 a7.7 7.7 0 1 0 -15.4 0zM2047.3 406.99 a7.7 7.7 0 1 0 15.4 0 a7.7 7.7 0 1 0 -15.4 0zM1980.61 445.49 a7.7 7.7 0 1 0 15.4 0 a7.7 7.7 0 1 0 -15.4 0z" fill="rgba(14, 14, 14, 1)"></path><path d="M2.72 -56.32L62.48 -21.82L62.48 47.18L2.72 81.68L-57.04 47.18L-57.04 -21.82zM2.72 357.68L62.48 392.18L62.48 461.18L2.72 495.68L-57.04 461.18L-57.04 392.18zM2.72 771.68L62.48 806.18L62.48 875.18L2.72 909.68L-57.04 875.18L-57.04 806.18zM181.99 47.18L241.75 81.68L241.75 150.68L181.99 185.18L122.23 150.68L122.23 81.68zM181.99 254.18L241.75 288.68L241.75 357.68L181.99 392.18L122.23 357.68L122.23 288.68zM122.23 357.68L181.99 392.18L181.99 461.18L122.23 495.68L62.48 461.18L62.48 392.18zM181.99 461.18L241.75 495.68L241.75 564.68L181.99 599.18L122.23 564.68L122.23 495.68zM122.23 771.68L181.99 806.18L181.99 875.18L122.23 909.68L62.48 875.18L62.48 806.18zM241.75 150.68L301.51 185.18L301.51 254.18L241.75 288.68L181.99 254.18L181.99 185.18zM301.51 254.18L361.26 288.68L361.26 357.68L301.51 392.18L241.75 357.68L241.75 288.68zM301.51 668.18L361.26 702.68L361.26 771.68L301.51 806.18L241.75 771.68L241.75 702.68zM421.02 47.18L480.78 81.68L480.78 150.68L421.02 185.18L361.26 150.68L361.26 81.68zM421.02 254.18L480.78 288.68L480.78 357.68L421.02 392.18L361.26 357.68L361.26 288.68zM361.26 357.68L421.02 392.18L421.02 461.18L361.26 495.68L301.51 461.18L301.51 392.18zM361.26 564.68L421.02 599.18L421.02 668.18L361.26 702.68L301.51 668.18L301.51 599.18zM421.02 668.18L480.78 702.68L480.78 771.68L421.02 806.18L361.26 771.68L361.26 702.68zM480.78 150.68L540.54 185.18L540.54 254.18L480.78 288.68L421.02 254.18L421.02 185.18zM540.54 254.18L600.29 288.68L600.29 357.68L540.54 392.18L480.78 357.68L480.78 288.68zM540.54 461.18L600.29 495.68L600.29 564.68L540.54 599.18L480.78 564.68L480.78 495.68zM480.78 564.68L540.54 599.18L540.54 668.18L480.78 702.68L421.02 668.18L421.02 599.18zM480.78 978.68L540.54 1013.18L540.54 1082.18L480.78 1116.68L421.02 1082.18L421.02 1013.18zM600.29 357.68L660.05 392.18L660.05 461.18L600.29 495.68L540.54 461.18L540.54 392.18zM600.29 564.68L660.05 599.18L660.05 668.18L600.29 702.68L540.54 668.18L540.54 599.18zM600.29 978.68L660.05 1013.18L660.05 1082.18L600.29 1116.68L540.54 1082.18L540.54 1013.18zM719.81 -56.32L779.57 -21.82L779.57 47.18L719.81 81.68L660.05 47.18L660.05 -21.82zM719.81 771.68L779.57 806.18L779.57 875.18L719.81 909.68L660.05 875.18L660.05 806.18zM779.57 875.18L839.32 909.68L839.32 978.68L779.57 1013.18L719.81 978.68L719.81 909.68zM719.81 978.68L779.57 1013.18L779.57 1082.18L719.81 1116.68L660.05 1082.18L660.05 1013.18zM839.32 -56.32L899.08 -21.82L899.08 47.18L839.32 81.68L779.57 47.18L779.57 -21.82zM899.08 47.18L958.84 81.68L958.84 150.68L899.08 185.18L839.32 150.68L839.32 81.68zM899.08 254.18L958.84 288.68L958.84 357.68L899.08 392.18L839.32 357.68L839.32 288.68zM839.32 357.68L899.08 392.18L899.08 461.18L839.32 495.68L779.57 461.18L779.57 392.18zM899.08 461.18L958.84 495.68L958.84 564.68L899.08 599.18L839.32 564.68L839.32 495.68zM899.08 875.18L958.84 909.68L958.84 978.68L899.08 1013.18L839.32 978.68L839.32 909.68zM958.84 -56.32L1018.6 -21.82L1018.6 47.18L958.84 81.68L899.08 47.18L899.08 -21.82zM958.84 564.68L1018.6 599.18L1018.6 668.18L958.84 702.68L899.08 668.18L899.08 599.18zM1018.6 875.18L1078.35 909.68L1078.35 978.68L1018.6 1013.18L958.84 978.68L958.84 909.68zM958.84 978.68L1018.6 1013.18L1018.6 1082.18L958.84 1116.68L899.08 1082.18L899.08 1013.18zM1078.35 -56.32L1138.11 -21.82L1138.11 47.18L1078.35 81.68L1018.6 47.18L1018.6 -21.82zM1138.11 47.18L1197.87 81.68L1197.87 150.68L1138.11 185.18L1078.35 150.68L1078.35 81.68zM1078.35 357.68L1138.11 392.18L1138.11 461.18L1078.35 495.68L1018.6 461.18L1018.6 392.18zM1138.11 461.18L1197.87 495.68L1197.87 564.68L1138.11 599.18L1078.35 564.68L1078.35 495.68zM1078.35 564.68L1138.11 599.18L1138.11 668.18L1078.35 702.68L1018.6 668.18L1018.6 599.18zM1138.11 875.18L1197.87 909.68L1197.87 978.68L1138.11 1013.18L1078.35 978.68L1078.35 909.68zM1197.87 -56.32L1257.63 -21.82L1257.63 47.18L1197.87 81.68L1138.11 47.18L1138.11 -21.82zM1257.63 47.18L1317.38 81.68L1317.38 150.68L1257.63 185.18L1197.87 150.68L1197.87 81.68zM1197.87 150.68L1257.63 185.18L1257.63 254.18L1197.87 288.68L1138.11 254.18L1138.11 185.18zM1197.87 771.68L1257.63 806.18L1257.63 875.18L1197.87 909.68L1138.11 875.18L1138.11 806.18zM1317.38 150.68L1377.14 185.18L1377.14 254.18L1317.38 288.68L1257.63 254.18L1257.63 185.18zM1317.38 357.68L1377.14 392.18L1377.14 461.18L1317.38 495.68L1257.63 461.18L1257.63 392.18zM1436.9 -56.32L1496.66 -21.82L1496.66 47.18L1436.9 81.68L1377.14 47.18L1377.14 -21.82zM1436.9 150.68L1496.66 185.18L1496.66 254.18L1436.9 288.68L1377.14 254.18L1377.14 185.18zM1436.9 357.68L1496.66 392.18L1496.66 461.18L1436.9 495.68L1377.14 461.18L1377.14 392.18zM1496.66 461.18L1556.41 495.68L1556.41 564.68L1496.66 599.18L1436.9 564.68L1436.9 495.68zM1496.66 668.18L1556.41 702.68L1556.41 771.68L1496.66 806.18L1436.9 771.68L1436.9 702.68zM1616.17 47.18L1675.93 81.68L1675.93 150.68L1616.17 185.18L1556.41 150.68L1556.41 81.68zM1616.17 254.18L1675.93 288.68L1675.93 357.68L1616.17 392.18L1556.41 357.68L1556.41 288.68zM1616.17 461.18L1675.93 495.68L1675.93 564.68L1616.17 599.18L1556.41 564.68L1556.41 495.68zM1556.41 771.68L1616.17 806.18L1616.17 875.18L1556.41 909.68L1496.66 875.18L1496.66 806.18zM1616.17 875.18L1675.93 909.68L1675.93 978.68L1616.17 1013.18L1556.41 978.68L1556.41 909.68zM1735.69 47.18L1795.44 81.68L1795.44 150.68L1735.69 185.18L1675.93 150.68L1675.93 81.68zM1735.69 254.18L1795.44 288.68L1795.44 357.68L1735.69 392.18L1675.93 357.68L1675.93 288.68zM1675.93 357.68L1735.69 392.18L1735.69 461.18L1675.93 495.68L1616.17 461.18L1616.17 392.18zM1675.93 771.68L1735.69 806.18L1735.69 875.18L1675.93 909.68L1616.17 875.18L1616.17 806.18zM1795.44 150.68L1855.2 185.18L1855.2 254.18L1795.44 288.68L1735.69 254.18L1735.69 185.18zM1855.2 254.18L1914.96 288.68L1914.96 357.68L1855.2 392.18L1795.44 357.68L1795.44 288.68zM1855.2 668.18L1914.96 702.68L1914.96 771.68L1855.2 806.18L1795.44 771.68L1795.44 702.68zM1795.44 978.68L1855.2 1013.18L1855.2 1082.18L1795.44 1116.68L1735.69 1082.18L1735.69 1013.18zM1974.72 47.18L2034.47 81.68L2034.47 150.68L1974.72 185.18L1914.96 150.68L1914.96 81.68zM1914.96 150.68L1974.72 185.18L1974.72 254.18L1914.96 288.68L1855.2 254.18L1855.2 185.18zM1914.96 357.68L1974.72 392.18L1974.72 461.18L1914.96 495.68L1855.2 461.18L1855.2 392.18zM1914.96 771.68L1974.72 806.18L1974.72 875.18L1914.96 909.68L1855.2 875.18L1855.2 806.18z" stroke="rgba(17, 17, 17, 1)" stroke-width="2"></path></g><defs><mask id="SvgjsMask1245"><rect width="1920" height="1080" fill="#ffffff"></rect></mask></defs></svg>