<svg xmlns="http://www.w3.org/2000/svg" version="1.1" xmlns:xlink="http://www.w3.org/1999/xlink" xmlns:svgjs="http://svgjs.dev/svgjs" width="1920" height="1080" preserveAspectRatio="none" viewBox="0 0 1920 1080"><g mask="url(&quot;#SvgjsMask1244&quot;)" fill="none"><path d="M65.7 -68.86L132.39 -30.36L132.39 46.64L65.7 85.14L-0.99 46.64L-0.99 -30.36zM132.39 46.64L199.07 85.14L199.07 162.14L132.39 200.64L65.7 162.14L65.7 85.14zM65.7 162.14L132.39 200.64L132.39 277.64L65.7 316.14L-0.99 277.64L-0.99 200.64zM132.39 277.64L199.07 316.14L199.07 393.14L132.39 431.64L65.7 393.14L65.7 316.14zM65.7 855.14L132.39 893.64L132.39 970.64L65.7 1009.14L-0.99 970.64L-0.99 893.64zM265.76 508.64L332.44 547.14L332.44 624.14L265.76 662.64L199.07 624.14L199.07 547.14zM265.76 739.64L332.44 778.14L332.44 855.14L265.76 893.64L199.07 855.14L199.07 778.14zM332.44 162.14L399.13 200.64L399.13 277.64L332.44 316.14L265.76 277.64L265.76 200.64zM332.44 855.14L399.13 893.64L399.13 970.64L332.44 1009.14L265.76 970.64L265.76 893.64zM465.82 162.14L532.5 200.64L532.5 277.64L465.82 316.14L399.13 277.64L399.13 200.64zM532.5 277.64L599.19 316.14L599.19 393.14L532.5 431.64L465.82 393.14L465.82 316.14zM532.5 508.64L599.19 547.14L599.19 624.14L532.5 662.64L465.82 624.14L465.82 547.14zM599.19 -68.86L665.87 -30.36L665.87 46.64L599.19 85.14L532.5 46.64L532.5 -30.36zM665.87 46.64L732.56 85.14L732.56 162.14L665.87 200.64L599.19 162.14L599.19 85.14zM665.87 277.64L732.56 316.14L732.56 393.14L665.87 431.64L599.19 393.14L599.19 316.14zM599.19 393.14L665.87 431.64L665.87 508.64L599.19 547.14L532.5 508.64L532.5 431.64zM799.24 277.64L865.93 316.14L865.93 393.14L799.24 431.64L732.56 393.14L732.56 316.14zM799.24 508.64L865.93 547.14L865.93 624.14L799.24 662.64L732.56 624.14L732.56 547.14zM732.56 855.14L799.24 893.64L799.24 970.64L732.56 1009.14L665.87 970.64L665.87 893.64zM799.24 970.64L865.93 1009.14L865.93 1086.14L799.24 1124.64L732.56 1086.14L732.56 1009.14zM865.93 162.14L932.62 200.64L932.62 277.64L865.93 316.14L799.24 277.64L799.24 200.64zM865.93 393.14L932.62 431.64L932.62 508.64L865.93 547.14L799.24 508.64L799.24 431.64zM932.62 970.64L999.3 1009.14L999.3 1086.14L932.62 1124.64L865.93 1086.14L865.93 1009.14zM1065.99 46.64L1132.67 85.14L1132.67 162.14L1065.99 200.64L999.3 162.14L999.3 85.14zM999.3 393.14L1065.99 431.64L1065.99 508.64L999.3 547.14L932.62 508.64L932.62 431.64zM1065.99 739.64L1132.67 778.14L1132.67 855.14L1065.99 893.64L999.3 855.14L999.3 778.14zM1065.99 970.64L1132.67 1009.14L1132.67 1086.14L1065.99 1124.64L999.3 1086.14L999.3 1009.14zM1132.67 162.14L1199.36 200.64L1199.36 277.64L1132.67 316.14L1065.99 277.64L1065.99 200.64zM1132.67 393.14L1199.36 431.64L1199.36 508.64L1132.67 547.14L1065.99 508.64L1065.99 431.64zM1199.36 508.64L1266.05 547.14L1266.05 624.14L1199.36 662.64L1132.67 624.14L1132.67 547.14zM1132.67 624.14L1199.36 662.64L1199.36 739.64L1132.67 778.14L1065.99 739.64L1065.99 662.64zM1332.73 46.64L1399.42 85.14L1399.42 162.14L1332.73 200.64L1266.05 162.14L1266.05 85.14zM1266.05 162.14L1332.73 200.64L1332.73 277.64L1266.05 316.14L1199.36 277.64L1199.36 200.64zM1266.05 624.14L1332.73 662.64L1332.73 739.64L1266.05 778.14L1199.36 739.64L1199.36 662.64zM1399.42 162.14L1466.1 200.64L1466.1 277.64L1399.42 316.14L1332.73 277.64L1332.73 200.64zM1466.1 508.64L1532.79 547.14L1532.79 624.14L1466.1 662.64L1399.42 624.14L1399.42 547.14zM1466.1 970.64L1532.79 1009.14L1532.79 1086.14L1466.1 1124.64L1399.42 1086.14L1399.42 1009.14zM1599.47 739.64L1666.16 778.14L1666.16 855.14L1599.47 893.64L1532.79 855.14L1532.79 778.14zM1532.79 855.14L1599.47 893.64L1599.47 970.64L1532.79 1009.14L1466.1 970.64L1466.1 893.64zM1666.16 -68.86L1732.85 -30.36L1732.85 46.64L1666.16 85.14L1599.47 46.64L1599.47 -30.36zM1666.16 393.14L1732.85 431.64L1732.85 508.64L1666.16 547.14L1599.47 508.64L1599.47 431.64zM1666.16 624.14L1732.85 662.64L1732.85 739.64L1666.16 778.14L1599.47 739.64L1599.47 662.64zM1732.85 739.64L1799.53 778.14L1799.53 855.14L1732.85 893.64L1666.16 855.14L1666.16 778.14zM1799.53 -68.86L1866.22 -30.36L1866.22 46.64L1799.53 85.14L1732.85 46.64L1732.85 -30.36zM1799.53 393.14L1866.22 431.64L1866.22 508.64L1799.53 547.14L1732.85 508.64L1732.85 431.64zM1799.53 855.14L1866.22 893.64L1866.22 970.64L1799.53 1009.14L1732.85 970.64L1732.85 893.64zM1866.22 970.64L1932.9 1009.14L1932.9 1086.14L1866.22 1124.64L1799.53 1086.14L1799.53 1009.14zM1999.59 508.64L2066.28 547.14L2066.28 624.14L1999.59 662.64L1932.9 624.14L1932.9 547.14zM1932.9 855.14L1999.59 893.64L1999.59 970.64L1932.9 1009.14L1866.22 970.64L1866.22 893.64z" stroke="rgba(14, 14, 14, 1)" stroke-width="2"></path><path d="M58 -68.86 a7.7 7.7 0 1 0 15.4 0 a7.7 7.7 0 1 0 -15.4 0zM124.69 -30.36 a7.7 7.7 0 1 0 15.4 0 a7.7 7.7 0 1 0 -15.4 0zM124.69 46.64 a7.7 7.7 0 1 0 15.4 0 a7.7 7.7 0 1 0 -15.4 0zM58 85.14 a7.7 7.7 0 1 0 15.4 0 a7.7 7.7 0 1 0 -15.4 0zM-8.69 46.64 a7.7 7.7 0 1 0 15.4 0 a7.7 7.7 0 1 0 -15.4 0zM-8.69 -30.36 a7.7 7.7 0 1 0 15.4 0 a7.7 7.7 0 1 0 -15.4 0zM191.37 85.14 a7.7 7.7 0 1 0 15.4 0 a7.7 7.7 0 1 0 -15.4 0zM191.37 162.14 a7.7 7.7 0 1 0 15.4 0 a7.7 7.7 0 1 0 -15.4 0zM124.69 200.64 a7.7 7.7 0 1 0 15.4 0 a7.7 7.7 0 1 0 -15.4 0zM58 162.14 a7.7 7.7 0 1 0 15.4 0 a7.7 7.7 0 1 0 -15.4 0zM124.69 277.64 a7.7 7.7 0 1 0 15.4 0 a7.7 7.7 0 1 0 -15.4 0zM58 316.14 a7.7 7.7 0 1 0 15.4 0 a7.7 7.7 0 1 0 -15.4 0zM-8.69 277.64 a7.7 7.7 0 1 0 15.4 0 a7.7 7.7 0 1 0 -15.4 0zM-8.69 200.64 a7.7 7.7 0 1 0 15.4 0 a7.7 7.7 0 1 0 -15.4 0zM191.37 316.14 a7.7 7.7 0 1 0 15.4 0 a7.7 7.7 0 1 0 -15.4 0zM191.37 393.14 a7.7 7.7 0 1 0 15.4 0 a7.7 7.7 0 1 0 -15.4 0zM124.69 431.64 a7.7 7.7 0 1 0 15.4 0 a7.7 7.7 0 1 0 -15.4 0zM58 393.14 a7.7 7.7 0 1 0 15.4 0 a7.7 7.7 0 1 0 -15.4 0zM58 855.14 a7.7 7.7 0 1 0 15.4 0 a7.7 7.7 0 1 0 -15.4 0zM124.69 893.64 a7.7 7.7 0 1 0 15.4 0 a7.7 7.7 0 1 0 -15.4 0zM124.69 970.64 a7.7 7.7 0 1 0 15.4 0 a7.7 7.7 0 1 0 -15.4 0zM58 1009.14 a7.7 7.7 0 1 0 15.4 0 a7.7 7.7 0 1 0 -15.4 0zM-8.69 970.64 a7.7 7.7 0 1 0 15.4 0 a7.7 7.7 0 1 0 -15.4 0zM-8.69 893.64 a7.7 7.7 0 1 0 15.4 0 a7.7 7.7 0 1 0 -15.4 0zM258.06 508.64 a7.7 7.7 0 1 0 15.4 0 a7.7 7.7 0 1 0 -15.4 0zM324.74 547.14 a7.7 7.7 0 1 0 15.4 0 a7.7 7.7 0 1 0 -15.4 0zM324.74 624.14 a7.7 7.7 0 1 0 15.4 0 a7.7 7.7 0 1 0 -15.4 0zM258.06 662.64 a7.7 7.7 0 1 0 15.4 0 a7.7 7.7 0 1 0 -15.4 0zM191.37 624.14 a7.7 7.7 0 1 0 15.4 0 a7.7 7.7 0 1 0 -15.4 0zM191.37 547.14 a7.7 7.7 0 1 0 15.4 0 a7.7 7.7 0 1 0 -15.4 0zM258.06 739.64 a7.7 7.7 0 1 0 15.4 0 a7.7 7.7 0 1 0 -15.4 0zM324.74 778.14 a7.7 7.7 0 1 0 15.4 0 a7.7 7.7 0 1 0 -15.4 0zM324.74 855.14 a7.7 7.7 0 1 0 15.4 0 a7.7 7.7 0 1 0 -15.4 0zM258.06 893.64 a7.7 7.7 0 1 0 15.4 0 a7.7 7.7 0 1 0 -15.4 0zM191.37 855.14 a7.7 7.7 0 1 0 15.4 0 a7.7 7.7 0 1 0 -15.4 0zM191.37 778.14 a7.7 7.7 0 1 0 15.4 0 a7.7 7.7 0 1 0 -15.4 0zM324.74 162.14 a7.7 7.7 0 1 0 15.4 0 a7.7 7.7 0 1 0 -15.4 0zM391.43 200.64 a7.7 7.7 0 1 0 15.4 0 a7.7 7.7 0 1 0 -15.4 0zM391.43 277.64 a7.7 7.7 0 1 0 15.4 0 a7.7 7.7 0 1 0 -15.4 0zM324.74 316.14 a7.7 7.7 0 1 0 15.4 0 a7.7 7.7 0 1 0 -15.4 0zM258.06 277.64 a7.7 7.7 0 1 0 15.4 0 a7.7 7.7 0 1 0 -15.4 0zM258.06 200.64 a7.7 7.7 0 1 0 15.4 0 a7.7 7.7 0 1 0 -15.4 0zM391.43 893.64 a7.7 7.7 0 1 0 15.4 0 a7.7 7.7 0 1 0 -15.4 0zM391.43 970.64 a7.7 7.7 0 1 0 15.4 0 a7.7 7.7 0 1 0 -15.4 0zM324.74 1009.14 a7.7 7.7 0 1 0 15.4 0 a7.7 7.7 0 1 0 -15.4 0zM258.06 970.64 a7.7 7.7 0 1 0 15.4 0 a7.7 7.7 0 1 0 -15.4 0zM458.12 162.14 a7.7 7.7 0 1 0 15.4 0 a7.7 7.7 0 1 0 -15.4 0zM524.8 200.64 a7.7 7.7 0 1 0 15.4 0 a7.7 7.7 0 1 0 -15.4 0zM524.8 277.64 a7.7 7.7 0 1 0 15.4 0 a7.7 7.7 0 1 0 -15.4 0zM458.12 316.14 a7.7 7.7 0 1 0 15.4 0 a7.7 7.7 0 1 0 -15.4 0zM591.49 316.14 a7.7 7.7 0 1 0 15.4 0 a7.7 7.7 0 1 0 -15.4 0zM591.49 393.14 a7.7 7.7 0 1 0 15.4 0 a7.7 7.7 0 1 0 -15.4 0zM524.8 431.64 a7.7 7.7 0 1 0 15.4 0 a7.7 7.7 0 1 0 -15.4 0zM458.12 393.14 a7.7 7.7 0 1 0 15.4 0 a7.7 7.7 0 1 0 -15.4 0zM524.8 508.64 a7.7 7.7 0 1 0 15.4 0 a7.7 7.7 0 1 0 -15.4 0zM591.49 547.14 a7.7 7.7 0 1 0 15.4 0 a7.7 7.7 0 1 0 -15.4 0zM591.49 624.14 a7.7 7.7 0 1 0 15.4 0 a7.7 7.7 0 1 0 -15.4 0zM524.8 662.64 a7.7 7.7 0 1 0 15.4 0 a7.7 7.7 0 1 0 -15.4 0zM458.12 624.14 a7.7 7.7 0 1 0 15.4 0 a7.7 7.7 0 1 0 -15.4 0zM458.12 547.14 a7.7 7.7 0 1 0 15.4 0 a7.7 7.7 0 1 0 -15.4 0zM591.49 -68.86 a7.7 7.7 0 1 0 15.4 0 a7.7 7.7 0 1 0 -15.4 0zM658.17 -30.36 a7.7 7.7 0 1 0 15.4 0 a7.7 7.7 0 1 0 -15.4 0zM658.17 46.64 a7.7 7.7 0 1 0 15.4 0 a7.7 7.7 0 1 0 -15.4 0zM591.49 85.14 a7.7 7.7 0 1 0 15.4 0 a7.7 7.7 0 1 0 -15.4 0zM524.8 46.64 a7.7 7.7 0 1 0 15.4 0 a7.7 7.7 0 1 0 -15.4 0zM524.8 -30.36 a7.7 7.7 0 1 0 15.4 0 a7.7 7.7 0 1 0 -15.4 0zM724.86 85.14 a7.7 7.7 0 1 0 15.4 0 a7.7 7.7 0 1 0 -15.4 0zM724.86 162.14 a7.7 7.7 0 1 0 15.4 0 a7.7 7.7 0 1 0 -15.4 0zM658.17 200.64 a7.7 7.7 0 1 0 15.4 0 a7.7 7.7 0 1 0 -15.4 0zM591.49 162.14 a7.7 7.7 0 1 0 15.4 0 a7.7 7.7 0 1 0 -15.4 0zM658.17 277.64 a7.7 7.7 0 1 0 15.4 0 a7.7 7.7 0 1 0 -15.4 0zM724.86 316.14 a7.7 7.7 0 1 0 15.4 0 a7.7 7.7 0 1 0 -15.4 0zM724.86 393.14 a7.7 7.7 0 1 0 15.4 0 a7.7 7.7 0 1 0 -15.4 0zM658.17 431.64 a7.7 7.7 0 1 0 15.4 0 a7.7 7.7 0 1 0 -15.4 0zM658.17 508.64 a7.7 7.7 0 1 0 15.4 0 a7.7 7.7 0 1 0 -15.4 0zM791.54 277.64 a7.7 7.7 0 1 0 15.4 0 a7.7 7.7 0 1 0 -15.4 0zM858.23 316.14 a7.7 7.7 0 1 0 15.4 0 a7.7 7.7 0 1 0 -15.4 0zM858.23 393.14 a7.7 7.7 0 1 0 15.4 0 a7.7 7.7 0 1 0 -15.4 0zM791.54 431.64 a7.7 7.7 0 1 0 15.4 0 a7.7 7.7 0 1 0 -15.4 0zM791.54 508.64 a7.7 7.7 0 1 0 15.4 0 a7.7 7.7 0 1 0 -15.4 0zM858.23 547.14 a7.7 7.7 0 1 0 15.4 0 a7.7 7.7 0 1 0 -15.4 0zM858.23 624.14 a7.7 7.7 0 1 0 15.4 0 a7.7 7.7 0 1 0 -15.4 0zM791.54 662.64 a7.7 7.7 0 1 0 15.4 0 a7.7 7.7 0 1 0 -15.4 0zM724.86 624.14 a7.7 7.7 0 1 0 15.4 0 a7.7 7.7 0 1 0 -15.4 0zM724.86 547.14 a7.7 7.7 0 1 0 15.4 0 a7.7 7.7 0 1 0 -15.4 0zM724.86 855.14 a7.7 7.7 0 1 0 15.4 0 a7.7 7.7 0 1 0 -15.4 0zM791.54 893.64 a7.7 7.7 0 1 0 15.4 0 a7.7 7.7 0 1 0 -15.4 0zM791.54 970.64 a7.7 7.7 0 1 0 15.4 0 a7.7 7.7 0 1 0 -15.4 0zM724.86 1009.14 a7.7 7.7 0 1 0 15.4 0 a7.7 7.7 0 1 0 -15.4 0zM658.17 970.64 a7.7 7.7 0 1 0 15.4 0 a7.7 7.7 0 1 0 -15.4 0zM658.17 893.64 a7.7 7.7 0 1 0 15.4 0 a7.7 7.7 0 1 0 -15.4 0zM858.23 1009.14 a7.7 7.7 0 1 0 15.4 0 a7.7 7.7 0 1 0 -15.4 0zM858.23 1086.14 a7.7 7.7 0 1 0 15.4 0 a7.7 7.7 0 1 0 -15.4 0zM791.54 1124.64 a7.7 7.7 0 1 0 15.4 0 a7.7 7.7 0 1 0 -15.4 0zM724.86 1086.14 a7.7 7.7 0 1 0 15.4 0 a7.7 7.7 0 1 0 -15.4 0zM858.23 162.14 a7.7 7.7 0 1 0 15.4 0 a7.7 7.7 0 1 0 -15.4 0zM924.92 200.64 a7.7 7.7 0 1 0 15.4 0 a7.7 7.7 0 1 0 -15.4 0zM924.92 277.64 a7.7 7.7 0 1 0 15.4 0 a7.7 7.7 0 1 0 -15.4 0zM791.54 200.64 a7.7 7.7 0 1 0 15.4 0 a7.7 7.7 0 1 0 -15.4 0zM924.92 431.64 a7.7 7.7 0 1 0 15.4 0 a7.7 7.7 0 1 0 -15.4 0zM924.92 508.64 a7.7 7.7 0 1 0 15.4 0 a7.7 7.7 0 1 0 -15.4 0zM924.92 970.64 a7.7 7.7 0 1 0 15.4 0 a7.7 7.7 0 1 0 -15.4 0zM991.6 1009.14 a7.7 7.7 0 1 0 15.4 0 a7.7 7.7 0 1 0 -15.4 0zM991.6 1086.14 a7.7 7.7 0 1 0 15.4 0 a7.7 7.7 0 1 0 -15.4 0zM924.92 1124.64 a7.7 7.7 0 1 0 15.4 0 a7.7 7.7 0 1 0 -15.4 0zM1058.29 46.64 a7.7 7.7 0 1 0 15.4 0 a7.7 7.7 0 1 0 -15.4 0zM1124.97 85.14 a7.7 7.7 0 1 0 15.4 0 a7.7 7.7 0 1 0 -15.4 0zM1124.97 162.14 a7.7 7.7 0 1 0 15.4 0 a7.7 7.7 0 1 0 -15.4 0zM1058.29 200.64 a7.7 7.7 0 1 0 15.4 0 a7.7 7.7 0 1 0 -15.4 0zM991.6 162.14 a7.7 7.7 0 1 0 15.4 0 a7.7 7.7 0 1 0 -15.4 0zM991.6 85.14 a7.7 7.7 0 1 0 15.4 0 a7.7 7.7 0 1 0 -15.4 0zM991.6 393.14 a7.7 7.7 0 1 0 15.4 0 a7.7 7.7 0 1 0 -15.4 0zM1058.29 431.64 a7.7 7.7 0 1 0 15.4 0 a7.7 7.7 0 1 0 -15.4 0zM1058.29 508.64 a7.7 7.7 0 1 0 15.4 0 a7.7 7.7 0 1 0 -15.4 0zM991.6 547.14 a7.7 7.7 0 1 0 15.4 0 a7.7 7.7 0 1 0 -15.4 0zM1058.29 739.64 a7.7 7.7 0 1 0 15.4 0 a7.7 7.7 0 1 0 -15.4 0zM1124.97 778.14 a7.7 7.7 0 1 0 15.4 0 a7.7 7.7 0 1 0 -15.4 0zM1124.97 855.14 a7.7 7.7 0 1 0 15.4 0 a7.7 7.7 0 1 0 -15.4 0zM1058.29 893.64 a7.7 7.7 0 1 0 15.4 0 a7.7 7.7 0 1 0 -15.4 0zM991.6 855.14 a7.7 7.7 0 1 0 15.4 0 a7.7 7.7 0 1 0 -15.4 0zM991.6 778.14 a7.7 7.7 0 1 0 15.4 0 a7.7 7.7 0 1 0 -15.4 0zM1058.29 970.64 a7.7 7.7 0 1 0 15.4 0 a7.7 7.7 0 1 0 -15.4 0zM1124.97 1009.14 a7.7 7.7 0 1 0 15.4 0 a7.7 7.7 0 1 0 -15.4 0zM1124.97 1086.14 a7.7 7.7 0 1 0 15.4 0 a7.7 7.7 0 1 0 -15.4 0zM1058.29 1124.64 a7.7 7.7 0 1 0 15.4 0 a7.7 7.7 0 1 0 -15.4 0zM1191.66 200.64 a7.7 7.7 0 1 0 15.4 0 a7.7 7.7 0 1 0 -15.4 0zM1191.66 277.64 a7.7 7.7 0 1 0 15.4 0 a7.7 7.7 0 1 0 -15.4 0zM1124.97 316.14 a7.7 7.7 0 1 0 15.4 0 a7.7 7.7 0 1 0 -15.4 0zM1058.29 277.64 a7.7 7.7 0 1 0 15.4 0 a7.7 7.7 0 1 0 -15.4 0zM1124.97 393.14 a7.7 7.7 0 1 0 15.4 0 a7.7 7.7 0 1 0 -15.4 0zM1191.66 431.64 a7.7 7.7 0 1 0 15.4 0 a7.7 7.7 0 1 0 -15.4 0zM1191.66 508.64 a7.7 7.7 0 1 0 15.4 0 a7.7 7.7 0 1 0 -15.4 0zM1124.97 547.14 a7.7 7.7 0 1 0 15.4 0 a7.7 7.7 0 1 0 -15.4 0zM1258.35 547.14 a7.7 7.7 0 1 0 15.4 0 a7.7 7.7 0 1 0 -15.4 0zM1258.35 624.14 a7.7 7.7 0 1 0 15.4 0 a7.7 7.7 0 1 0 -15.4 0zM1191.66 662.64 a7.7 7.7 0 1 0 15.4 0 a7.7 7.7 0 1 0 -15.4 0zM1124.97 624.14 a7.7 7.7 0 1 0 15.4 0 a7.7 7.7 0 1 0 -15.4 0zM1191.66 739.64 a7.7 7.7 0 1 0 15.4 0 a7.7 7.7 0 1 0 -15.4 0zM1058.29 662.64 a7.7 7.7 0 1 0 15.4 0 a7.7 7.7 0 1 0 -15.4 0zM1325.03 46.64 a7.7 7.7 0 1 0 15.4 0 a7.7 7.7 0 1 0 -15.4 0zM1391.72 85.14 a7.7 7.7 0 1 0 15.4 0 a7.7 7.7 0 1 0 -15.4 0zM1391.72 162.14 a7.7 7.7 0 1 0 15.4 0 a7.7 7.7 0 1 0 -15.4 0zM1325.03 200.64 a7.7 7.7 0 1 0 15.4 0 a7.7 7.7 0 1 0 -15.4 0zM1258.35 162.14 a7.7 7.7 0 1 0 15.4 0 a7.7 7.7 0 1 0 -15.4 0zM1258.35 85.14 a7.7 7.7 0 1 0 15.4 0 a7.7 7.7 0 1 0 -15.4 0zM1325.03 277.64 a7.7 7.7 0 1 0 15.4 0 a7.7 7.7 0 1 0 -15.4 0zM1258.35 316.14 a7.7 7.7 0 1 0 15.4 0 a7.7 7.7 0 1 0 -15.4 0zM1325.03 662.64 a7.7 7.7 0 1 0 15.4 0 a7.7 7.7 0 1 0 -15.4 0zM1325.03 739.64 a7.7 7.7 0 1 0 15.4 0 a7.7 7.7 0 1 0 -15.4 0zM1258.35 778.14 a7.7 7.7 0 1 0 15.4 0 a7.7 7.7 0 1 0 -15.4 0zM1458.4 200.64 a7.7 7.7 0 1 0 15.4 0 a7.7 7.7 0 1 0 -15.4 0zM1458.4 277.64 a7.7 7.7 0 1 0 15.4 0 a7.7 7.7 0 1 0 -15.4 0zM1391.72 316.14 a7.7 7.7 0 1 0 15.4 0 a7.7 7.7 0 1 0 -15.4 0zM1458.4 508.64 a7.7 7.7 0 1 0 15.4 0 a7.7 7.7 0 1 0 -15.4 0zM1525.09 547.14 a7.7 7.7 0 1 0 15.4 0 a7.7 7.7 0 1 0 -15.4 0zM1525.09 624.14 a7.7 7.7 0 1 0 15.4 0 a7.7 7.7 0 1 0 -15.4 0zM1458.4 662.64 a7.7 7.7 0 1 0 15.4 0 a7.7 7.7 0 1 0 -15.4 0zM1391.72 624.14 a7.7 7.7 0 1 0 15.4 0 a7.7 7.7 0 1 0 -15.4 0zM1391.72 547.14 a7.7 7.7 0 1 0 15.4 0 a7.7 7.7 0 1 0 -15.4 0zM1458.4 970.64 a7.7 7.7 0 1 0 15.4 0 a7.7 7.7 0 1 0 -15.4 0zM1525.09 1009.14 a7.7 7.7 0 1 0 15.4 0 a7.7 7.7 0 1 0 -15.4 0zM1525.09 1086.14 a7.7 7.7 0 1 0 15.4 0 a7.7 7.7 0 1 0 -15.4 0zM1458.4 1124.64 a7.7 7.7 0 1 0 15.4 0 a7.7 7.7 0 1 0 -15.4 0zM1391.72 1086.14 a7.7 7.7 0 1 0 15.4 0 a7.7 7.7 0 1 0 -15.4 0zM1391.72 1009.14 a7.7 7.7 0 1 0 15.4 0 a7.7 7.7 0 1 0 -15.4 0zM1591.77 739.64 a7.7 7.7 0 1 0 15.4 0 a7.7 7.7 0 1 0 -15.4 0zM1658.46 778.14 a7.7 7.7 0 1 0 15.4 0 a7.7 7.7 0 1 0 -15.4 0zM1658.46 855.14 a7.7 7.7 0 1 0 15.4 0 a7.7 7.7 0 1 0 -15.4 0zM1591.77 893.64 a7.7 7.7 0 1 0 15.4 0 a7.7 7.7 0 1 0 -15.4 0zM1525.09 855.14 a7.7 7.7 0 1 0 15.4 0 a7.7 7.7 0 1 0 -15.4 0zM1525.09 778.14 a7.7 7.7 0 1 0 15.4 0 a7.7 7.7 0 1 0 -15.4 0zM1591.77 970.64 a7.7 7.7 0 1 0 15.4 0 a7.7 7.7 0 1 0 -15.4 0zM1458.4 893.64 a7.7 7.7 0 1 0 15.4 0 a7.7 7.7 0 1 0 -15.4 0zM1658.46 -68.86 a7.7 7.7 0 1 0 15.4 0 a7.7 7.7 0 1 0 -15.4 0zM1725.15 -30.36 a7.7 7.7 0 1 0 15.4 0 a7.7 7.7 0 1 0 -15.4 0zM1725.15 46.64 a7.7 7.7 0 1 0 15.4 0 a7.7 7.7 0 1 0 -15.4 0zM1658.46 85.14 a7.7 7.7 0 1 0 15.4 0 a7.7 7.7 0 1 0 -15.4 0zM1591.77 46.64 a7.7 7.7 0 1 0 15.4 0 a7.7 7.7 0 1 0 -15.4 0zM1591.77 -30.36 a7.7 7.7 0 1 0 15.4 0 a7.7 7.7 0 1 0 -15.4 0zM1658.46 393.14 a7.7 7.7 0 1 0 15.4 0 a7.7 7.7 0 1 0 -15.4 0zM1725.15 431.64 a7.7 7.7 0 1 0 15.4 0 a7.7 7.7 0 1 0 -15.4 0zM1725.15 508.64 a7.7 7.7 0 1 0 15.4 0 a7.7 7.7 0 1 0 -15.4 0zM1658.46 547.14 a7.7 7.7 0 1 0 15.4 0 a7.7 7.7 0 1 0 -15.4 0zM1591.77 508.64 a7.7 7.7 0 1 0 15.4 0 a7.7 7.7 0 1 0 -15.4 0zM1591.77 431.64 a7.7 7.7 0 1 0 15.4 0 a7.7 7.7 0 1 0 -15.4 0zM1658.46 624.14 a7.7 7.7 0 1 0 15.4 0 a7.7 7.7 0 1 0 -15.4 0zM1725.15 662.64 a7.7 7.7 0 1 0 15.4 0 a7.7 7.7 0 1 0 -15.4 0zM1725.15 739.64 a7.7 7.7 0 1 0 15.4 0 a7.7 7.7 0 1 0 -15.4 0zM1591.77 662.64 a7.7 7.7 0 1 0 15.4 0 a7.7 7.7 0 1 0 -15.4 0zM1791.83 778.14 a7.7 7.7 0 1 0 15.4 0 a7.7 7.7 0 1 0 -15.4 0zM1791.83 855.14 a7.7 7.7 0 1 0 15.4 0 a7.7 7.7 0 1 0 -15.4 0zM1725.15 893.64 a7.7 7.7 0 1 0 15.4 0 a7.7 7.7 0 1 0 -15.4 0zM1791.83 -68.86 a7.7 7.7 0 1 0 15.4 0 a7.7 7.7 0 1 0 -15.4 0zM1858.52 -30.36 a7.7 7.7 0 1 0 15.4 0 a7.7 7.7 0 1 0 -15.4 0zM1858.52 46.64 a7.7 7.7 0 1 0 15.4 0 a7.7 7.7 0 1 0 -15.4 0zM1791.83 85.14 a7.7 7.7 0 1 0 15.4 0 a7.7 7.7 0 1 0 -15.4 0zM1791.83 393.14 a7.7 7.7 0 1 0 15.4 0 a7.7 7.7 0 1 0 -15.4 0zM1858.52 431.64 a7.7 7.7 0 1 0 15.4 0 a7.7 7.7 0 1 0 -15.4 0zM1858.52 508.64 a7.7 7.7 0 1 0 15.4 0 a7.7 7.7 0 1 0 -15.4 0zM1791.83 547.14 a7.7 7.7 0 1 0 15.4 0 a7.7 7.7 0 1 0 -15.4 0zM1858.52 893.64 a7.7 7.7 0 1 0 15.4 0 a7.7 7.7 0 1 0 -15.4 0zM1858.52 970.64 a7.7 7.7 0 1 0 15.4 0 a7.7 7.7 0 1 0 -15.4 0zM1791.83 1009.14 a7.7 7.7 0 1 0 15.4 0 a7.7 7.7 0 1 0 -15.4 0zM1725.15 970.64 a7.7 7.7 0 1 0 15.4 0 a7.7 7.7 0 1 0 -15.4 0zM1925.2 1009.14 a7.7 7.7 0 1 0 15.4 0 a7.7 7.7 0 1 0 -15.4 0zM1925.2 1086.14 a7.7 7.7 0 1 0 15.4 0 a7.7 7.7 0 1 0 -15.4 0zM1858.52 1124.64 a7.7 7.7 0 1 0 15.4 0 a7.7 7.7 0 1 0 -15.4 0zM1791.83 1086.14 a7.7 7.7 0 1 0 15.4 0 a7.7 7.7 0 1 0 -15.4 0zM1991.89 508.64 a7.7 7.7 0 1 0 15.4 0 a7.7 7.7 0 1 0 -15.4 0zM2058.58 547.14 a7.7 7.7 0 1 0 15.4 0 a7.7 7.7 0 1 0 -15.4 0zM2058.58 624.14 a7.7 7.7 0 1 0 15.4 0 a7.7 7.7 0 1 0 -15.4 0zM1991.89 662.64 a7.7 7.7 0 1 0 15.4 0 a7.7 7.7 0 1 0 -15.4 0zM1925.2 624.14 a7.7 7.7 0 1 0 15.4 0 a7.7 7.7 0 1 0 -15.4 0zM1925.2 547.14 a7.7 7.7 0 1 0 15.4 0 a7.7 7.7 0 1 0 -15.4 0zM1925.2 855.14 a7.7 7.7 0 1 0 15.4 0 a7.7 7.7 0 1 0 -15.4 0zM1991.89 893.64 a7.7 7.7 0 1 0 15.4 0 a7.7 7.7 0 1 0 -15.4 0zM1991.89 970.64 a7.7 7.7 0 1 0 15.4 0 a7.7 7.7 0 1 0 -15.4 0z" fill="rgba(14, 14, 14, 1)"></path><path d="M1.69 179.97L61.45 214.47L61.45 283.47L1.69 317.97L-58.07 283.47L-58.07 214.47zM1.69 386.97L61.45 421.47L61.45 490.47L1.69 524.97L-58.07 490.47L-58.07 421.47zM61.45 490.47L121.2 524.97L121.2 593.97L61.45 628.47L1.69 593.97L1.69 524.97zM1.69 593.97L61.45 628.47L61.45 697.47L1.69 731.97L-58.07 697.47L-58.07 628.47zM61.45 697.47L121.2 731.97L121.2 800.97L61.45 835.47L1.69 800.97L1.69 731.97zM121.2 179.97L180.96 214.47L180.96 283.47L121.2 317.97L61.45 283.47L61.45 214.47zM180.96 490.47L240.72 524.97L240.72 593.97L180.96 628.47L121.2 593.97L121.2 524.97zM121.2 593.97L180.96 628.47L180.96 697.47L121.2 731.97L61.45 697.47L61.45 628.47zM240.72 -27.03L300.48 7.47L300.48 76.47L240.72 110.97L180.96 76.47L180.96 7.47zM300.48 697.47L360.23 731.97L360.23 800.97L300.48 835.47L240.72 800.97L240.72 731.97zM240.72 800.97L300.48 835.47L300.48 904.47L240.72 938.97L180.96 904.47L180.96 835.47zM240.72 1007.97L300.48 1042.47L300.48 1111.47L240.72 1145.97L180.96 1111.47L180.96 1042.47zM360.23 -27.03L419.99 7.47L419.99 76.47L360.23 110.97L300.48 76.47L300.48 7.47zM360.23 179.97L419.99 214.47L419.99 283.47L360.23 317.97L300.48 283.47L300.48 214.47zM419.99 697.47L479.75 731.97L479.75 800.97L419.99 835.47L360.23 800.97L360.23 731.97zM479.75 -27.03L539.51 7.47L539.51 76.47L479.75 110.97L419.99 76.47L419.99 7.47zM479.75 179.97L539.51 214.47L539.51 283.47L479.75 317.97L419.99 283.47L419.99 214.47zM539.51 283.47L599.26 317.97L599.26 386.97L539.51 421.47L479.75 386.97L479.75 317.97zM479.75 593.97L539.51 628.47L539.51 697.47L479.75 731.97L419.99 697.47L419.99 628.47zM539.51 697.47L599.26 731.97L599.26 800.97L539.51 835.47L479.75 800.97L479.75 731.97zM479.75 800.97L539.51 835.47L539.51 904.47L479.75 938.97L419.99 904.47L419.99 835.47zM599.26 -27.03L659.02 7.47L659.02 76.47L599.26 110.97L539.51 76.47L539.51 7.47zM659.02 283.47L718.78 317.97L718.78 386.97L659.02 421.47L599.26 386.97L599.26 317.97zM659.02 697.47L718.78 731.97L718.78 800.97L659.02 835.47L599.26 800.97L599.26 731.97zM599.26 800.97L659.02 835.47L659.02 904.47L599.26 938.97L539.51 904.47L539.51 835.47zM778.54 697.47L838.29 731.97L838.29 800.97L778.54 835.47L718.78 800.97L718.78 731.97zM838.29 -27.03L898.05 7.47L898.05 76.47L838.29 110.97L778.54 76.47L778.54 7.47zM898.05 76.47L957.81 110.97L957.81 179.97L898.05 214.47L838.29 179.97L838.29 110.97zM898.05 490.47L957.81 524.97L957.81 593.97L898.05 628.47L838.29 593.97L838.29 524.97zM838.29 593.97L898.05 628.47L898.05 697.47L838.29 731.97L778.54 697.47L778.54 628.47zM898.05 697.47L957.81 731.97L957.81 800.97L898.05 835.47L838.29 800.97L838.29 731.97zM838.29 1007.97L898.05 1042.47L898.05 1111.47L838.29 1145.97L778.54 1111.47L778.54 1042.47zM957.81 -27.03L1017.57 7.47L1017.57 76.47L957.81 110.97L898.05 76.47L898.05 7.47zM1017.57 283.47L1077.32 317.97L1077.32 386.97L1017.57 421.47L957.81 386.97L957.81 317.97zM957.81 386.97L1017.57 421.47L1017.57 490.47L957.81 524.97L898.05 490.47L898.05 421.47zM957.81 800.97L1017.57 835.47L1017.57 904.47L957.81 938.97L898.05 904.47L898.05 835.47zM1017.57 904.47L1077.32 938.97L1077.32 1007.97L1017.57 1042.47L957.81 1007.97L957.81 938.97zM1137.08 76.47L1196.84 110.97L1196.84 179.97L1137.08 214.47L1077.32 179.97L1077.32 110.97zM1077.32 593.97L1137.08 628.47L1137.08 697.47L1077.32 731.97L1017.57 697.47L1017.57 628.47zM1077.32 800.97L1137.08 835.47L1137.08 904.47L1077.32 938.97L1017.57 904.47L1017.57 835.47zM1196.84 -27.03L1256.6 7.47L1256.6 76.47L1196.84 110.97L1137.08 76.47L1137.08 7.47zM1196.84 179.97L1256.6 214.47L1256.6 283.47L1196.84 317.97L1137.08 283.47L1137.08 214.47zM1196.84 800.97L1256.6 835.47L1256.6 904.47L1196.84 938.97L1137.08 904.47L1137.08 835.47zM1196.84 1007.97L1256.6 1042.47L1256.6 1111.47L1196.84 1145.97L1137.08 1111.47L1137.08 1042.47zM1376.11 76.47L1435.87 110.97L1435.87 179.97L1376.11 214.47L1316.35 179.97L1316.35 110.97zM1316.35 179.97L1376.11 214.47L1376.11 283.47L1316.35 317.97L1256.6 283.47L1256.6 214.47zM1316.35 386.97L1376.11 421.47L1376.11 490.47L1316.35 524.97L1256.6 490.47L1256.6 421.47zM1376.11 697.47L1435.87 731.97L1435.87 800.97L1376.11 835.47L1316.35 800.97L1316.35 731.97zM1316.35 800.97L1376.11 835.47L1376.11 904.47L1316.35 938.97L1256.6 904.47L1256.6 835.47zM1495.63 76.47L1555.38 110.97L1555.38 179.97L1495.63 214.47L1435.87 179.97L1435.87 110.97zM1435.87 593.97L1495.63 628.47L1495.63 697.47L1435.87 731.97L1376.11 697.47L1376.11 628.47zM1495.63 697.47L1555.38 731.97L1555.38 800.97L1495.63 835.47L1435.87 800.97L1435.87 731.97zM1435.87 1007.97L1495.63 1042.47L1495.63 1111.47L1435.87 1145.97L1376.11 1111.47L1376.11 1042.47zM1555.38 179.97L1615.14 214.47L1615.14 283.47L1555.38 317.97L1495.63 283.47L1495.63 214.47zM1555.38 386.97L1615.14 421.47L1615.14 490.47L1555.38 524.97L1495.63 490.47L1495.63 421.47zM1615.14 490.47L1674.9 524.97L1674.9 593.97L1615.14 628.47L1555.38 593.97L1555.38 524.97zM1555.38 800.97L1615.14 835.47L1615.14 904.47L1555.38 938.97L1495.63 904.47L1495.63 835.47zM1615.14 904.47L1674.9 938.97L1674.9 1007.97L1615.14 1042.47L1555.38 1007.97L1555.38 938.97zM1555.38 1007.97L1615.14 1042.47L1615.14 1111.47L1555.38 1145.97L1495.63 1111.47L1495.63 1042.47zM1734.66 697.47L1794.41 731.97L1794.41 800.97L1734.66 835.47L1674.9 800.97L1674.9 731.97zM1674.9 800.97L1734.66 835.47L1734.66 904.47L1674.9 938.97L1615.14 904.47L1615.14 835.47zM1674.9 1007.97L1734.66 1042.47L1734.66 1111.47L1674.9 1145.97L1615.14 1111.47L1615.14 1042.47zM1854.17 283.47L1913.93 317.97L1913.93 386.97L1854.17 421.47L1794.41 386.97L1794.41 317.97zM1794.41 386.97L1854.17 421.47L1854.17 490.47L1794.41 524.97L1734.66 490.47L1734.66 421.47zM1913.93 179.97L1973.69 214.47L1973.69 283.47L1913.93 317.97L1854.17 283.47L1854.17 214.47zM1973.69 904.47L2033.44 938.97L2033.44 1007.97L1973.69 1042.47L1913.93 1007.97L1913.93 938.97z" stroke="rgba(17, 17, 17, 1)" stroke-width="2"></path></g><defs><mask id="SvgjsMask1244"><rect width="1920" height="1080" fill="#ffffff"></rect></mask></defs></svg>