<svg xmlns="http://www.w3.org/2000/svg" version="1.1" xmlns:xlink="http://www.w3.org/1999/xlink" xmlns:svgjs="http://svgjs.dev/svgjs" width="1920" height="1080" preserveAspectRatio="none" viewBox="0 0 1920 1080"><g mask="url(&quot;#SvgjsMask1243&quot;)" fill="none"><path d="M65.58 169.49L132.27 207.99L132.27 284.99L65.58 323.49L-1.11 284.99L-1.11 207.99zM132.27 284.99L198.95 323.49L198.95 400.49L132.27 438.99L65.58 400.49L65.58 323.49zM65.58 400.49L132.27 438.99L132.27 515.99L65.58 554.49L-1.11 515.99L-1.11 438.99zM132.27 515.99L198.95 554.49L198.95 631.49L132.27 669.99L65.58 631.49L65.58 554.49zM132.27 746.99L198.95 785.49L198.95 862.49L132.27 900.99L65.58 862.49L65.58 785.49zM65.58 862.49L132.27 900.99L132.27 977.99L65.58 1016.49L-1.11 977.99L-1.11 900.99zM132.27 977.99L198.95 1016.49L198.95 1093.49L132.27 1131.99L65.58 1093.49L65.58 1016.49zM198.95 -61.51L265.64 -23.01L265.64 53.99L198.95 92.49L132.27 53.99L132.27 -23.01zM265.64 53.99L332.32 92.49L332.32 169.49L265.64 207.99L198.95 169.49L198.95 92.49zM265.64 284.99L332.32 323.49L332.32 400.49L265.64 438.99L198.95 400.49L198.95 323.49zM265.64 515.99L332.32 554.49L332.32 631.49L265.64 669.99L198.95 631.49L198.95 554.49zM198.95 631.49L265.64 669.99L265.64 746.99L198.95 785.49L132.27 746.99L132.27 669.99zM399.01 284.99L465.7 323.49L465.7 400.49L399.01 438.99L332.32 400.49L332.32 323.49zM399.01 515.99L465.7 554.49L465.7 631.49L399.01 669.99L332.32 631.49L332.32 554.49zM332.32 631.49L399.01 669.99L399.01 746.99L332.32 785.49L265.64 746.99L265.64 669.99zM399.01 746.99L465.7 785.49L465.7 862.49L399.01 900.99L332.32 862.49L332.32 785.49zM465.7 169.49L532.38 207.99L532.38 284.99L465.7 323.49L399.01 284.99L399.01 207.99zM532.38 746.99L599.07 785.49L599.07 862.49L532.38 900.99L465.7 862.49L465.7 785.49zM465.7 862.49L532.38 900.99L532.38 977.99L465.7 1016.49L399.01 977.99L399.01 900.99zM532.38 977.99L599.07 1016.49L599.07 1093.49L532.38 1131.99L465.7 1093.49L465.7 1016.49zM599.07 400.49L665.75 438.99L665.75 515.99L599.07 554.49L532.38 515.99L532.38 438.99zM665.75 515.99L732.44 554.49L732.44 631.49L665.75 669.99L599.07 631.49L599.07 554.49zM599.07 631.49L665.75 669.99L665.75 746.99L599.07 785.49L532.38 746.99L532.38 669.99zM799.12 515.99L865.81 554.49L865.81 631.49L799.12 669.99L732.44 631.49L732.44 554.49zM732.44 631.49L799.12 669.99L799.12 746.99L732.44 785.49L665.75 746.99L665.75 669.99zM732.44 862.49L799.12 900.99L799.12 977.99L732.44 1016.49L665.75 977.99L665.75 900.99zM799.12 977.99L865.81 1016.49L865.81 1093.49L799.12 1131.99L732.44 1093.49L732.44 1016.49zM932.5 53.99L999.18 92.49L999.18 169.49L932.5 207.99L865.81 169.49L865.81 92.49zM865.81 169.49L932.5 207.99L932.5 284.99L865.81 323.49L799.12 284.99L799.12 207.99zM865.81 400.49L932.5 438.99L932.5 515.99L865.81 554.49L799.12 515.99L799.12 438.99zM932.5 515.99L999.18 554.49L999.18 631.49L932.5 669.99L865.81 631.49L865.81 554.49zM932.5 746.99L999.18 785.49L999.18 862.49L932.5 900.99L865.81 862.49L865.81 785.49zM865.81 862.49L932.5 900.99L932.5 977.99L865.81 1016.49L799.12 977.99L799.12 900.99zM932.5 977.99L999.18 1016.49L999.18 1093.49L932.5 1131.99L865.81 1093.49L865.81 1016.49zM999.18 -61.51L1065.87 -23.01L1065.87 53.99L999.18 92.49L932.5 53.99L932.5 -23.01zM1065.87 53.99L1132.55 92.49L1132.55 169.49L1065.87 207.99L999.18 169.49L999.18 92.49zM999.18 400.49L1065.87 438.99L1065.87 515.99L999.18 554.49L932.5 515.99L932.5 438.99zM1065.87 515.99L1132.55 554.49L1132.55 631.49L1065.87 669.99L999.18 631.49L999.18 554.49zM999.18 631.49L1065.87 669.99L1065.87 746.99L999.18 785.49L932.5 746.99L932.5 669.99zM1065.87 746.99L1132.55 785.49L1132.55 862.49L1065.87 900.99L999.18 862.49L999.18 785.49zM1065.87 977.99L1132.55 1016.49L1132.55 1093.49L1065.87 1131.99L999.18 1093.49L999.18 1016.49zM1199.24 53.99L1265.93 92.49L1265.93 169.49L1199.24 207.99L1132.55 169.49L1132.55 92.49zM1132.55 169.49L1199.24 207.99L1199.24 284.99L1132.55 323.49L1065.87 284.99L1065.87 207.99zM1199.24 284.99L1265.93 323.49L1265.93 400.49L1199.24 438.99L1132.55 400.49L1132.55 323.49zM1132.55 400.49L1199.24 438.99L1199.24 515.99L1132.55 554.49L1065.87 515.99L1065.87 438.99zM1199.24 515.99L1265.93 554.49L1265.93 631.49L1199.24 669.99L1132.55 631.49L1132.55 554.49zM1132.55 862.49L1199.24 900.99L1199.24 977.99L1132.55 1016.49L1065.87 977.99L1065.87 900.99zM1332.61 53.99L1399.3 92.49L1399.3 169.49L1332.61 207.99L1265.93 169.49L1265.93 92.49zM1265.93 169.49L1332.61 207.99L1332.61 284.99L1265.93 323.49L1199.24 284.99L1199.24 207.99zM1332.61 284.99L1399.3 323.49L1399.3 400.49L1332.61 438.99L1265.93 400.49L1265.93 323.49zM1265.93 400.49L1332.61 438.99L1332.61 515.99L1265.93 554.49L1199.24 515.99L1199.24 438.99zM1332.61 515.99L1399.3 554.49L1399.3 631.49L1332.61 669.99L1265.93 631.49L1265.93 554.49zM1265.93 862.49L1332.61 900.99L1332.61 977.99L1265.93 1016.49L1199.24 977.99L1199.24 900.99zM1399.3 -61.51L1465.98 -23.01L1465.98 53.99L1399.3 92.49L1332.61 53.99L1332.61 -23.01zM1399.3 169.49L1465.98 207.99L1465.98 284.99L1399.3 323.49L1332.61 284.99L1332.61 207.99zM1465.98 284.99L1532.67 323.49L1532.67 400.49L1465.98 438.99L1399.3 400.49L1399.3 323.49zM1399.3 400.49L1465.98 438.99L1465.98 515.99L1399.3 554.49L1332.61 515.99L1332.61 438.99zM1399.3 631.49L1465.98 669.99L1465.98 746.99L1399.3 785.49L1332.61 746.99L1332.61 669.99zM1465.98 746.99L1532.67 785.49L1532.67 862.49L1465.98 900.99L1399.3 862.49L1399.3 785.49zM1532.67 -61.51L1599.35 -23.01L1599.35 53.99L1532.67 92.49L1465.98 53.99L1465.98 -23.01zM1532.67 169.49L1599.35 207.99L1599.35 284.99L1532.67 323.49L1465.98 284.99L1465.98 207.99zM1599.35 746.99L1666.04 785.49L1666.04 862.49L1599.35 900.99L1532.67 862.49L1532.67 785.49zM1532.67 862.49L1599.35 900.99L1599.35 977.99L1532.67 1016.49L1465.98 977.99L1465.98 900.99zM1666.04 -61.51L1732.73 -23.01L1732.73 53.99L1666.04 92.49L1599.35 53.99L1599.35 -23.01zM1666.04 400.49L1732.73 438.99L1732.73 515.99L1666.04 554.49L1599.35 515.99L1599.35 438.99zM1732.73 515.99L1799.41 554.49L1799.41 631.49L1732.73 669.99L1666.04 631.49L1666.04 554.49zM1666.04 631.49L1732.73 669.99L1732.73 746.99L1666.04 785.49L1599.35 746.99L1599.35 669.99zM1732.73 746.99L1799.41 785.49L1799.41 862.49L1732.73 900.99L1666.04 862.49L1666.04 785.49zM1866.1 53.99L1932.78 92.49L1932.78 169.49L1866.1 207.99L1799.41 169.49L1799.41 92.49zM1866.1 284.99L1932.78 323.49L1932.78 400.49L1866.1 438.99L1799.41 400.49L1799.41 323.49zM1799.41 400.49L1866.1 438.99L1866.1 515.99L1799.41 554.49L1732.73 515.99L1732.73 438.99zM1866.1 746.99L1932.78 785.49L1932.78 862.49L1866.1 900.99L1799.41 862.49L1799.41 785.49zM1799.41 862.49L1866.1 900.99L1866.1 977.99L1799.41 1016.49L1732.73 977.99L1732.73 900.99zM1932.78 -61.51L1999.47 -23.01L1999.47 53.99L1932.78 92.49L1866.1 53.99L1866.1 -23.01zM1999.47 53.99L2066.16 92.49L2066.16 169.49L1999.47 207.99L1932.78 169.49L1932.78 92.49zM1999.47 746.99L2066.16 785.49L2066.16 862.49L1999.47 900.99L1932.78 862.49L1932.78 785.49zM1932.78 862.49L1999.47 900.99L1999.47 977.99L1932.78 1016.49L1866.1 977.99L1866.1 900.99z" stroke="rgba(14, 14, 14, 1)" stroke-width="2"></path><path d="M57.88 169.49 a7.7 7.7 0 1 0 15.4 0 a7.7 7.7 0 1 0 -15.4 0zM124.57 207.99 a7.7 7.7 0 1 0 15.4 0 a7.7 7.7 0 1 0 -15.4 0zM124.57 284.99 a7.7 7.7 0 1 0 15.4 0 a7.7 7.7 0 1 0 -15.4 0zM57.88 323.49 a7.7 7.7 0 1 0 15.4 0 a7.7 7.7 0 1 0 -15.4 0zM-8.81 284.99 a7.7 7.7 0 1 0 15.4 0 a7.7 7.7 0 1 0 -15.4 0zM-8.81 207.99 a7.7 7.7 0 1 0 15.4 0 a7.7 7.7 0 1 0 -15.4 0zM191.25 323.49 a7.7 7.7 0 1 0 15.4 0 a7.7 7.7 0 1 0 -15.4 0zM191.25 400.49 a7.7 7.7 0 1 0 15.4 0 a7.7 7.7 0 1 0 -15.4 0zM124.57 438.99 a7.7 7.7 0 1 0 15.4 0 a7.7 7.7 0 1 0 -15.4 0zM57.88 400.49 a7.7 7.7 0 1 0 15.4 0 a7.7 7.7 0 1 0 -15.4 0zM124.57 515.99 a7.7 7.7 0 1 0 15.4 0 a7.7 7.7 0 1 0 -15.4 0zM57.88 554.49 a7.7 7.7 0 1 0 15.4 0 a7.7 7.7 0 1 0 -15.4 0zM-8.81 515.99 a7.7 7.7 0 1 0 15.4 0 a7.7 7.7 0 1 0 -15.4 0zM-8.81 438.99 a7.7 7.7 0 1 0 15.4 0 a7.7 7.7 0 1 0 -15.4 0zM191.25 554.49 a7.7 7.7 0 1 0 15.4 0 a7.7 7.7 0 1 0 -15.4 0zM191.25 631.49 a7.7 7.7 0 1 0 15.4 0 a7.7 7.7 0 1 0 -15.4 0zM124.57 669.99 a7.7 7.7 0 1 0 15.4 0 a7.7 7.7 0 1 0 -15.4 0zM57.88 631.49 a7.7 7.7 0 1 0 15.4 0 a7.7 7.7 0 1 0 -15.4 0zM124.57 746.99 a7.7 7.7 0 1 0 15.4 0 a7.7 7.7 0 1 0 -15.4 0zM191.25 785.49 a7.7 7.7 0 1 0 15.4 0 a7.7 7.7 0 1 0 -15.4 0zM191.25 862.49 a7.7 7.7 0 1 0 15.4 0 a7.7 7.7 0 1 0 -15.4 0zM124.57 900.99 a7.7 7.7 0 1 0 15.4 0 a7.7 7.7 0 1 0 -15.4 0zM57.88 862.49 a7.7 7.7 0 1 0 15.4 0 a7.7 7.7 0 1 0 -15.4 0zM57.88 785.49 a7.7 7.7 0 1 0 15.4 0 a7.7 7.7 0 1 0 -15.4 0zM124.57 977.99 a7.7 7.7 0 1 0 15.4 0 a7.7 7.7 0 1 0 -15.4 0zM57.88 1016.49 a7.7 7.7 0 1 0 15.4 0 a7.7 7.7 0 1 0 -15.4 0zM-8.81 977.99 a7.7 7.7 0 1 0 15.4 0 a7.7 7.7 0 1 0 -15.4 0zM-8.81 900.99 a7.7 7.7 0 1 0 15.4 0 a7.7 7.7 0 1 0 -15.4 0zM191.25 1016.49 a7.7 7.7 0 1 0 15.4 0 a7.7 7.7 0 1 0 -15.4 0zM191.25 1093.49 a7.7 7.7 0 1 0 15.4 0 a7.7 7.7 0 1 0 -15.4 0zM124.57 1131.99 a7.7 7.7 0 1 0 15.4 0 a7.7 7.7 0 1 0 -15.4 0zM57.88 1093.49 a7.7 7.7 0 1 0 15.4 0 a7.7 7.7 0 1 0 -15.4 0zM191.25 -61.51 a7.7 7.7 0 1 0 15.4 0 a7.7 7.7 0 1 0 -15.4 0zM257.94 -23.01 a7.7 7.7 0 1 0 15.4 0 a7.7 7.7 0 1 0 -15.4 0zM257.94 53.99 a7.7 7.7 0 1 0 15.4 0 a7.7 7.7 0 1 0 -15.4 0zM191.25 92.49 a7.7 7.7 0 1 0 15.4 0 a7.7 7.7 0 1 0 -15.4 0zM124.57 53.99 a7.7 7.7 0 1 0 15.4 0 a7.7 7.7 0 1 0 -15.4 0zM124.57 -23.01 a7.7 7.7 0 1 0 15.4 0 a7.7 7.7 0 1 0 -15.4 0zM324.62 92.49 a7.7 7.7 0 1 0 15.4 0 a7.7 7.7 0 1 0 -15.4 0zM324.62 169.49 a7.7 7.7 0 1 0 15.4 0 a7.7 7.7 0 1 0 -15.4 0zM257.94 207.99 a7.7 7.7 0 1 0 15.4 0 a7.7 7.7 0 1 0 -15.4 0zM191.25 169.49 a7.7 7.7 0 1 0 15.4 0 a7.7 7.7 0 1 0 -15.4 0zM257.94 284.99 a7.7 7.7 0 1 0 15.4 0 a7.7 7.7 0 1 0 -15.4 0zM324.62 323.49 a7.7 7.7 0 1 0 15.4 0 a7.7 7.7 0 1 0 -15.4 0zM324.62 400.49 a7.7 7.7 0 1 0 15.4 0 a7.7 7.7 0 1 0 -15.4 0zM257.94 438.99 a7.7 7.7 0 1 0 15.4 0 a7.7 7.7 0 1 0 -15.4 0zM257.94 515.99 a7.7 7.7 0 1 0 15.4 0 a7.7 7.7 0 1 0 -15.4 0zM324.62 554.49 a7.7 7.7 0 1 0 15.4 0 a7.7 7.7 0 1 0 -15.4 0zM324.62 631.49 a7.7 7.7 0 1 0 15.4 0 a7.7 7.7 0 1 0 -15.4 0zM257.94 669.99 a7.7 7.7 0 1 0 15.4 0 a7.7 7.7 0 1 0 -15.4 0zM257.94 746.99 a7.7 7.7 0 1 0 15.4 0 a7.7 7.7 0 1 0 -15.4 0zM391.31 284.99 a7.7 7.7 0 1 0 15.4 0 a7.7 7.7 0 1 0 -15.4 0zM458 323.49 a7.7 7.7 0 1 0 15.4 0 a7.7 7.7 0 1 0 -15.4 0zM458 400.49 a7.7 7.7 0 1 0 15.4 0 a7.7 7.7 0 1 0 -15.4 0zM391.31 438.99 a7.7 7.7 0 1 0 15.4 0 a7.7 7.7 0 1 0 -15.4 0zM391.31 515.99 a7.7 7.7 0 1 0 15.4 0 a7.7 7.7 0 1 0 -15.4 0zM458 554.49 a7.7 7.7 0 1 0 15.4 0 a7.7 7.7 0 1 0 -15.4 0zM458 631.49 a7.7 7.7 0 1 0 15.4 0 a7.7 7.7 0 1 0 -15.4 0zM391.31 669.99 a7.7 7.7 0 1 0 15.4 0 a7.7 7.7 0 1 0 -15.4 0zM391.31 746.99 a7.7 7.7 0 1 0 15.4 0 a7.7 7.7 0 1 0 -15.4 0zM324.62 785.49 a7.7 7.7 0 1 0 15.4 0 a7.7 7.7 0 1 0 -15.4 0zM458 785.49 a7.7 7.7 0 1 0 15.4 0 a7.7 7.7 0 1 0 -15.4 0zM458 862.49 a7.7 7.7 0 1 0 15.4 0 a7.7 7.7 0 1 0 -15.4 0zM391.31 900.99 a7.7 7.7 0 1 0 15.4 0 a7.7 7.7 0 1 0 -15.4 0zM324.62 862.49 a7.7 7.7 0 1 0 15.4 0 a7.7 7.7 0 1 0 -15.4 0zM458 169.49 a7.7 7.7 0 1 0 15.4 0 a7.7 7.7 0 1 0 -15.4 0zM524.68 207.99 a7.7 7.7 0 1 0 15.4 0 a7.7 7.7 0 1 0 -15.4 0zM524.68 284.99 a7.7 7.7 0 1 0 15.4 0 a7.7 7.7 0 1 0 -15.4 0zM391.31 207.99 a7.7 7.7 0 1 0 15.4 0 a7.7 7.7 0 1 0 -15.4 0zM524.68 746.99 a7.7 7.7 0 1 0 15.4 0 a7.7 7.7 0 1 0 -15.4 0zM591.37 785.49 a7.7 7.7 0 1 0 15.4 0 a7.7 7.7 0 1 0 -15.4 0zM591.37 862.49 a7.7 7.7 0 1 0 15.4 0 a7.7 7.7 0 1 0 -15.4 0zM524.68 900.99 a7.7 7.7 0 1 0 15.4 0 a7.7 7.7 0 1 0 -15.4 0zM524.68 977.99 a7.7 7.7 0 1 0 15.4 0 a7.7 7.7 0 1 0 -15.4 0zM458 1016.49 a7.7 7.7 0 1 0 15.4 0 a7.7 7.7 0 1 0 -15.4 0zM391.31 977.99 a7.7 7.7 0 1 0 15.4 0 a7.7 7.7 0 1 0 -15.4 0zM591.37 1016.49 a7.7 7.7 0 1 0 15.4 0 a7.7 7.7 0 1 0 -15.4 0zM591.37 1093.49 a7.7 7.7 0 1 0 15.4 0 a7.7 7.7 0 1 0 -15.4 0zM524.68 1131.99 a7.7 7.7 0 1 0 15.4 0 a7.7 7.7 0 1 0 -15.4 0zM458 1093.49 a7.7 7.7 0 1 0 15.4 0 a7.7 7.7 0 1 0 -15.4 0zM591.37 400.49 a7.7 7.7 0 1 0 15.4 0 a7.7 7.7 0 1 0 -15.4 0zM658.05 438.99 a7.7 7.7 0 1 0 15.4 0 a7.7 7.7 0 1 0 -15.4 0zM658.05 515.99 a7.7 7.7 0 1 0 15.4 0 a7.7 7.7 0 1 0 -15.4 0zM591.37 554.49 a7.7 7.7 0 1 0 15.4 0 a7.7 7.7 0 1 0 -15.4 0zM524.68 515.99 a7.7 7.7 0 1 0 15.4 0 a7.7 7.7 0 1 0 -15.4 0zM524.68 438.99 a7.7 7.7 0 1 0 15.4 0 a7.7 7.7 0 1 0 -15.4 0zM724.74 554.49 a7.7 7.7 0 1 0 15.4 0 a7.7 7.7 0 1 0 -15.4 0zM724.74 631.49 a7.7 7.7 0 1 0 15.4 0 a7.7 7.7 0 1 0 -15.4 0zM658.05 669.99 a7.7 7.7 0 1 0 15.4 0 a7.7 7.7 0 1 0 -15.4 0zM591.37 631.49 a7.7 7.7 0 1 0 15.4 0 a7.7 7.7 0 1 0 -15.4 0zM658.05 746.99 a7.7 7.7 0 1 0 15.4 0 a7.7 7.7 0 1 0 -15.4 0zM524.68 669.99 a7.7 7.7 0 1 0 15.4 0 a7.7 7.7 0 1 0 -15.4 0zM791.42 515.99 a7.7 7.7 0 1 0 15.4 0 a7.7 7.7 0 1 0 -15.4 0zM858.11 554.49 a7.7 7.7 0 1 0 15.4 0 a7.7 7.7 0 1 0 -15.4 0zM858.11 631.49 a7.7 7.7 0 1 0 15.4 0 a7.7 7.7 0 1 0 -15.4 0zM791.42 669.99 a7.7 7.7 0 1 0 15.4 0 a7.7 7.7 0 1 0 -15.4 0zM791.42 746.99 a7.7 7.7 0 1 0 15.4 0 a7.7 7.7 0 1 0 -15.4 0zM724.74 785.49 a7.7 7.7 0 1 0 15.4 0 a7.7 7.7 0 1 0 -15.4 0zM724.74 862.49 a7.7 7.7 0 1 0 15.4 0 a7.7 7.7 0 1 0 -15.4 0zM791.42 900.99 a7.7 7.7 0 1 0 15.4 0 a7.7 7.7 0 1 0 -15.4 0zM791.42 977.99 a7.7 7.7 0 1 0 15.4 0 a7.7 7.7 0 1 0 -15.4 0zM724.74 1016.49 a7.7 7.7 0 1 0 15.4 0 a7.7 7.7 0 1 0 -15.4 0zM658.05 977.99 a7.7 7.7 0 1 0 15.4 0 a7.7 7.7 0 1 0 -15.4 0zM658.05 900.99 a7.7 7.7 0 1 0 15.4 0 a7.7 7.7 0 1 0 -15.4 0zM858.11 1016.49 a7.7 7.7 0 1 0 15.4 0 a7.7 7.7 0 1 0 -15.4 0zM858.11 1093.49 a7.7 7.7 0 1 0 15.4 0 a7.7 7.7 0 1 0 -15.4 0zM791.42 1131.99 a7.7 7.7 0 1 0 15.4 0 a7.7 7.7 0 1 0 -15.4 0zM724.74 1093.49 a7.7 7.7 0 1 0 15.4 0 a7.7 7.7 0 1 0 -15.4 0zM924.8 53.99 a7.7 7.7 0 1 0 15.4 0 a7.7 7.7 0 1 0 -15.4 0zM991.48 92.49 a7.7 7.7 0 1 0 15.4 0 a7.7 7.7 0 1 0 -15.4 0zM991.48 169.49 a7.7 7.7 0 1 0 15.4 0 a7.7 7.7 0 1 0 -15.4 0zM924.8 207.99 a7.7 7.7 0 1 0 15.4 0 a7.7 7.7 0 1 0 -15.4 0zM858.11 169.49 a7.7 7.7 0 1 0 15.4 0 a7.7 7.7 0 1 0 -15.4 0zM858.11 92.49 a7.7 7.7 0 1 0 15.4 0 a7.7 7.7 0 1 0 -15.4 0zM924.8 284.99 a7.7 7.7 0 1 0 15.4 0 a7.7 7.7 0 1 0 -15.4 0zM858.11 323.49 a7.7 7.7 0 1 0 15.4 0 a7.7 7.7 0 1 0 -15.4 0zM791.42 284.99 a7.7 7.7 0 1 0 15.4 0 a7.7 7.7 0 1 0 -15.4 0zM791.42 207.99 a7.7 7.7 0 1 0 15.4 0 a7.7 7.7 0 1 0 -15.4 0zM858.11 400.49 a7.7 7.7 0 1 0 15.4 0 a7.7 7.7 0 1 0 -15.4 0zM924.8 438.99 a7.7 7.7 0 1 0 15.4 0 a7.7 7.7 0 1 0 -15.4 0zM924.8 515.99 a7.7 7.7 0 1 0 15.4 0 a7.7 7.7 0 1 0 -15.4 0zM791.42 438.99 a7.7 7.7 0 1 0 15.4 0 a7.7 7.7 0 1 0 -15.4 0zM991.48 554.49 a7.7 7.7 0 1 0 15.4 0 a7.7 7.7 0 1 0 -15.4 0zM991.48 631.49 a7.7 7.7 0 1 0 15.4 0 a7.7 7.7 0 1 0 -15.4 0zM924.8 669.99 a7.7 7.7 0 1 0 15.4 0 a7.7 7.7 0 1 0 -15.4 0zM924.8 746.99 a7.7 7.7 0 1 0 15.4 0 a7.7 7.7 0 1 0 -15.4 0zM991.48 785.49 a7.7 7.7 0 1 0 15.4 0 a7.7 7.7 0 1 0 -15.4 0zM991.48 862.49 a7.7 7.7 0 1 0 15.4 0 a7.7 7.7 0 1 0 -15.4 0zM924.8 900.99 a7.7 7.7 0 1 0 15.4 0 a7.7 7.7 0 1 0 -15.4 0zM858.11 862.49 a7.7 7.7 0 1 0 15.4 0 a7.7 7.7 0 1 0 -15.4 0zM858.11 785.49 a7.7 7.7 0 1 0 15.4 0 a7.7 7.7 0 1 0 -15.4 0zM924.8 977.99 a7.7 7.7 0 1 0 15.4 0 a7.7 7.7 0 1 0 -15.4 0zM991.48 1016.49 a7.7 7.7 0 1 0 15.4 0 a7.7 7.7 0 1 0 -15.4 0zM991.48 1093.49 a7.7 7.7 0 1 0 15.4 0 a7.7 7.7 0 1 0 -15.4 0zM924.8 1131.99 a7.7 7.7 0 1 0 15.4 0 a7.7 7.7 0 1 0 -15.4 0zM991.48 -61.51 a7.7 7.7 0 1 0 15.4 0 a7.7 7.7 0 1 0 -15.4 0zM1058.17 -23.01 a7.7 7.7 0 1 0 15.4 0 a7.7 7.7 0 1 0 -15.4 0zM1058.17 53.99 a7.7 7.7 0 1 0 15.4 0 a7.7 7.7 0 1 0 -15.4 0zM924.8 -23.01 a7.7 7.7 0 1 0 15.4 0 a7.7 7.7 0 1 0 -15.4 0zM1124.85 92.49 a7.7 7.7 0 1 0 15.4 0 a7.7 7.7 0 1 0 -15.4 0zM1124.85 169.49 a7.7 7.7 0 1 0 15.4 0 a7.7 7.7 0 1 0 -15.4 0zM1058.17 207.99 a7.7 7.7 0 1 0 15.4 0 a7.7 7.7 0 1 0 -15.4 0zM991.48 400.49 a7.7 7.7 0 1 0 15.4 0 a7.7 7.7 0 1 0 -15.4 0zM1058.17 438.99 a7.7 7.7 0 1 0 15.4 0 a7.7 7.7 0 1 0 -15.4 0zM1058.17 515.99 a7.7 7.7 0 1 0 15.4 0 a7.7 7.7 0 1 0 -15.4 0zM1124.85 554.49 a7.7 7.7 0 1 0 15.4 0 a7.7 7.7 0 1 0 -15.4 0zM1124.85 631.49 a7.7 7.7 0 1 0 15.4 0 a7.7 7.7 0 1 0 -15.4 0zM1058.17 669.99 a7.7 7.7 0 1 0 15.4 0 a7.7 7.7 0 1 0 -15.4 0zM1058.17 746.99 a7.7 7.7 0 1 0 15.4 0 a7.7 7.7 0 1 0 -15.4 0zM1124.85 785.49 a7.7 7.7 0 1 0 15.4 0 a7.7 7.7 0 1 0 -15.4 0zM1124.85 862.49 a7.7 7.7 0 1 0 15.4 0 a7.7 7.7 0 1 0 -15.4 0zM1058.17 900.99 a7.7 7.7 0 1 0 15.4 0 a7.7 7.7 0 1 0 -15.4 0zM1058.17 977.99 a7.7 7.7 0 1 0 15.4 0 a7.7 7.7 0 1 0 -15.4 0zM1124.85 1016.49 a7.7 7.7 0 1 0 15.4 0 a7.7 7.7 0 1 0 -15.4 0zM1124.85 1093.49 a7.7 7.7 0 1 0 15.4 0 a7.7 7.7 0 1 0 -15.4 0zM1058.17 1131.99 a7.7 7.7 0 1 0 15.4 0 a7.7 7.7 0 1 0 -15.4 0zM1191.54 53.99 a7.7 7.7 0 1 0 15.4 0 a7.7 7.7 0 1 0 -15.4 0zM1258.23 92.49 a7.7 7.7 0 1 0 15.4 0 a7.7 7.7 0 1 0 -15.4 0zM1258.23 169.49 a7.7 7.7 0 1 0 15.4 0 a7.7 7.7 0 1 0 -15.4 0zM1191.54 207.99 a7.7 7.7 0 1 0 15.4 0 a7.7 7.7 0 1 0 -15.4 0zM1191.54 284.99 a7.7 7.7 0 1 0 15.4 0 a7.7 7.7 0 1 0 -15.4 0zM1124.85 323.49 a7.7 7.7 0 1 0 15.4 0 a7.7 7.7 0 1 0 -15.4 0zM1058.17 284.99 a7.7 7.7 0 1 0 15.4 0 a7.7 7.7 0 1 0 -15.4 0zM1258.23 323.49 a7.7 7.7 0 1 0 15.4 0 a7.7 7.7 0 1 0 -15.4 0zM1258.23 400.49 a7.7 7.7 0 1 0 15.4 0 a7.7 7.7 0 1 0 -15.4 0zM1191.54 438.99 a7.7 7.7 0 1 0 15.4 0 a7.7 7.7 0 1 0 -15.4 0zM1124.85 400.49 a7.7 7.7 0 1 0 15.4 0 a7.7 7.7 0 1 0 -15.4 0zM1191.54 515.99 a7.7 7.7 0 1 0 15.4 0 a7.7 7.7 0 1 0 -15.4 0zM1258.23 554.49 a7.7 7.7 0 1 0 15.4 0 a7.7 7.7 0 1 0 -15.4 0zM1258.23 631.49 a7.7 7.7 0 1 0 15.4 0 a7.7 7.7 0 1 0 -15.4 0zM1191.54 669.99 a7.7 7.7 0 1 0 15.4 0 a7.7 7.7 0 1 0 -15.4 0zM1191.54 900.99 a7.7 7.7 0 1 0 15.4 0 a7.7 7.7 0 1 0 -15.4 0zM1191.54 977.99 a7.7 7.7 0 1 0 15.4 0 a7.7 7.7 0 1 0 -15.4 0zM1324.91 53.99 a7.7 7.7 0 1 0 15.4 0 a7.7 7.7 0 1 0 -15.4 0zM1391.6 92.49 a7.7 7.7 0 1 0 15.4 0 a7.7 7.7 0 1 0 -15.4 0zM1391.6 169.49 a7.7 7.7 0 1 0 15.4 0 a7.7 7.7 0 1 0 -15.4 0zM1324.91 207.99 a7.7 7.7 0 1 0 15.4 0 a7.7 7.7 0 1 0 -15.4 0zM1324.91 284.99 a7.7 7.7 0 1 0 15.4 0 a7.7 7.7 0 1 0 -15.4 0zM1391.6 323.49 a7.7 7.7 0 1 0 15.4 0 a7.7 7.7 0 1 0 -15.4 0zM1391.6 400.49 a7.7 7.7 0 1 0 15.4 0 a7.7 7.7 0 1 0 -15.4 0zM1324.91 438.99 a7.7 7.7 0 1 0 15.4 0 a7.7 7.7 0 1 0 -15.4 0zM1324.91 515.99 a7.7 7.7 0 1 0 15.4 0 a7.7 7.7 0 1 0 -15.4 0zM1391.6 554.49 a7.7 7.7 0 1 0 15.4 0 a7.7 7.7 0 1 0 -15.4 0zM1391.6 631.49 a7.7 7.7 0 1 0 15.4 0 a7.7 7.7 0 1 0 -15.4 0zM1324.91 669.99 a7.7 7.7 0 1 0 15.4 0 a7.7 7.7 0 1 0 -15.4 0zM1258.23 862.49 a7.7 7.7 0 1 0 15.4 0 a7.7 7.7 0 1 0 -15.4 0zM1324.91 900.99 a7.7 7.7 0 1 0 15.4 0 a7.7 7.7 0 1 0 -15.4 0zM1324.91 977.99 a7.7 7.7 0 1 0 15.4 0 a7.7 7.7 0 1 0 -15.4 0zM1258.23 1016.49 a7.7 7.7 0 1 0 15.4 0 a7.7 7.7 0 1 0 -15.4 0zM1391.6 -61.51 a7.7 7.7 0 1 0 15.4 0 a7.7 7.7 0 1 0 -15.4 0zM1458.28 -23.01 a7.7 7.7 0 1 0 15.4 0 a7.7 7.7 0 1 0 -15.4 0zM1458.28 53.99 a7.7 7.7 0 1 0 15.4 0 a7.7 7.7 0 1 0 -15.4 0zM1324.91 -23.01 a7.7 7.7 0 1 0 15.4 0 a7.7 7.7 0 1 0 -15.4 0zM1458.28 207.99 a7.7 7.7 0 1 0 15.4 0 a7.7 7.7 0 1 0 -15.4 0zM1458.28 284.99 a7.7 7.7 0 1 0 15.4 0 a7.7 7.7 0 1 0 -15.4 0zM1524.97 323.49 a7.7 7.7 0 1 0 15.4 0 a7.7 7.7 0 1 0 -15.4 0zM1524.97 400.49 a7.7 7.7 0 1 0 15.4 0 a7.7 7.7 0 1 0 -15.4 0zM1458.28 438.99 a7.7 7.7 0 1 0 15.4 0 a7.7 7.7 0 1 0 -15.4 0zM1458.28 515.99 a7.7 7.7 0 1 0 15.4 0 a7.7 7.7 0 1 0 -15.4 0zM1458.28 669.99 a7.7 7.7 0 1 0 15.4 0 a7.7 7.7 0 1 0 -15.4 0zM1458.28 746.99 a7.7 7.7 0 1 0 15.4 0 a7.7 7.7 0 1 0 -15.4 0zM1391.6 785.49 a7.7 7.7 0 1 0 15.4 0 a7.7 7.7 0 1 0 -15.4 0zM1324.91 746.99 a7.7 7.7 0 1 0 15.4 0 a7.7 7.7 0 1 0 -15.4 0zM1524.97 785.49 a7.7 7.7 0 1 0 15.4 0 a7.7 7.7 0 1 0 -15.4 0zM1524.97 862.49 a7.7 7.7 0 1 0 15.4 0 a7.7 7.7 0 1 0 -15.4 0zM1458.28 900.99 a7.7 7.7 0 1 0 15.4 0 a7.7 7.7 0 1 0 -15.4 0zM1391.6 862.49 a7.7 7.7 0 1 0 15.4 0 a7.7 7.7 0 1 0 -15.4 0zM1524.97 -61.51 a7.7 7.7 0 1 0 15.4 0 a7.7 7.7 0 1 0 -15.4 0zM1591.65 -23.01 a7.7 7.7 0 1 0 15.4 0 a7.7 7.7 0 1 0 -15.4 0zM1591.65 53.99 a7.7 7.7 0 1 0 15.4 0 a7.7 7.7 0 1 0 -15.4 0zM1524.97 92.49 a7.7 7.7 0 1 0 15.4 0 a7.7 7.7 0 1 0 -15.4 0zM1524.97 169.49 a7.7 7.7 0 1 0 15.4 0 a7.7 7.7 0 1 0 -15.4 0zM1591.65 207.99 a7.7 7.7 0 1 0 15.4 0 a7.7 7.7 0 1 0 -15.4 0zM1591.65 284.99 a7.7 7.7 0 1 0 15.4 0 a7.7 7.7 0 1 0 -15.4 0zM1591.65 746.99 a7.7 7.7 0 1 0 15.4 0 a7.7 7.7 0 1 0 -15.4 0zM1658.34 785.49 a7.7 7.7 0 1 0 15.4 0 a7.7 7.7 0 1 0 -15.4 0zM1658.34 862.49 a7.7 7.7 0 1 0 15.4 0 a7.7 7.7 0 1 0 -15.4 0zM1591.65 900.99 a7.7 7.7 0 1 0 15.4 0 a7.7 7.7 0 1 0 -15.4 0zM1591.65 977.99 a7.7 7.7 0 1 0 15.4 0 a7.7 7.7 0 1 0 -15.4 0zM1524.97 1016.49 a7.7 7.7 0 1 0 15.4 0 a7.7 7.7 0 1 0 -15.4 0zM1458.28 977.99 a7.7 7.7 0 1 0 15.4 0 a7.7 7.7 0 1 0 -15.4 0zM1658.34 -61.51 a7.7 7.7 0 1 0 15.4 0 a7.7 7.7 0 1 0 -15.4 0zM1725.03 -23.01 a7.7 7.7 0 1 0 15.4 0 a7.7 7.7 0 1 0 -15.4 0zM1725.03 53.99 a7.7 7.7 0 1 0 15.4 0 a7.7 7.7 0 1 0 -15.4 0zM1658.34 92.49 a7.7 7.7 0 1 0 15.4 0 a7.7 7.7 0 1 0 -15.4 0zM1658.34 400.49 a7.7 7.7 0 1 0 15.4 0 a7.7 7.7 0 1 0 -15.4 0zM1725.03 438.99 a7.7 7.7 0 1 0 15.4 0 a7.7 7.7 0 1 0 -15.4 0zM1725.03 515.99 a7.7 7.7 0 1 0 15.4 0 a7.7 7.7 0 1 0 -15.4 0zM1658.34 554.49 a7.7 7.7 0 1 0 15.4 0 a7.7 7.7 0 1 0 -15.4 0zM1591.65 515.99 a7.7 7.7 0 1 0 15.4 0 a7.7 7.7 0 1 0 -15.4 0zM1591.65 438.99 a7.7 7.7 0 1 0 15.4 0 a7.7 7.7 0 1 0 -15.4 0zM1791.71 554.49 a7.7 7.7 0 1 0 15.4 0 a7.7 7.7 0 1 0 -15.4 0zM1791.71 631.49 a7.7 7.7 0 1 0 15.4 0 a7.7 7.7 0 1 0 -15.4 0zM1725.03 669.99 a7.7 7.7 0 1 0 15.4 0 a7.7 7.7 0 1 0 -15.4 0zM1658.34 631.49 a7.7 7.7 0 1 0 15.4 0 a7.7 7.7 0 1 0 -15.4 0zM1725.03 746.99 a7.7 7.7 0 1 0 15.4 0 a7.7 7.7 0 1 0 -15.4 0zM1591.65 669.99 a7.7 7.7 0 1 0 15.4 0 a7.7 7.7 0 1 0 -15.4 0zM1791.71 785.49 a7.7 7.7 0 1 0 15.4 0 a7.7 7.7 0 1 0 -15.4 0zM1791.71 862.49 a7.7 7.7 0 1 0 15.4 0 a7.7 7.7 0 1 0 -15.4 0zM1725.03 900.99 a7.7 7.7 0 1 0 15.4 0 a7.7 7.7 0 1 0 -15.4 0zM1858.4 53.99 a7.7 7.7 0 1 0 15.4 0 a7.7 7.7 0 1 0 -15.4 0zM1925.08 92.49 a7.7 7.7 0 1 0 15.4 0 a7.7 7.7 0 1 0 -15.4 0zM1925.08 169.49 a7.7 7.7 0 1 0 15.4 0 a7.7 7.7 0 1 0 -15.4 0zM1858.4 207.99 a7.7 7.7 0 1 0 15.4 0 a7.7 7.7 0 1 0 -15.4 0zM1791.71 169.49 a7.7 7.7 0 1 0 15.4 0 a7.7 7.7 0 1 0 -15.4 0zM1791.71 92.49 a7.7 7.7 0 1 0 15.4 0 a7.7 7.7 0 1 0 -15.4 0zM1858.4 284.99 a7.7 7.7 0 1 0 15.4 0 a7.7 7.7 0 1 0 -15.4 0zM1925.08 323.49 a7.7 7.7 0 1 0 15.4 0 a7.7 7.7 0 1 0 -15.4 0zM1925.08 400.49 a7.7 7.7 0 1 0 15.4 0 a7.7 7.7 0 1 0 -15.4 0zM1858.4 438.99 a7.7 7.7 0 1 0 15.4 0 a7.7 7.7 0 1 0 -15.4 0zM1791.71 400.49 a7.7 7.7 0 1 0 15.4 0 a7.7 7.7 0 1 0 -15.4 0zM1791.71 323.49 a7.7 7.7 0 1 0 15.4 0 a7.7 7.7 0 1 0 -15.4 0zM1858.4 515.99 a7.7 7.7 0 1 0 15.4 0 a7.7 7.7 0 1 0 -15.4 0zM1858.4 746.99 a7.7 7.7 0 1 0 15.4 0 a7.7 7.7 0 1 0 -15.4 0zM1925.08 785.49 a7.7 7.7 0 1 0 15.4 0 a7.7 7.7 0 1 0 -15.4 0zM1925.08 862.49 a7.7 7.7 0 1 0 15.4 0 a7.7 7.7 0 1 0 -15.4 0zM1858.4 900.99 a7.7 7.7 0 1 0 15.4 0 a7.7 7.7 0 1 0 -15.4 0zM1858.4 977.99 a7.7 7.7 0 1 0 15.4 0 a7.7 7.7 0 1 0 -15.4 0zM1791.71 1016.49 a7.7 7.7 0 1 0 15.4 0 a7.7 7.7 0 1 0 -15.4 0zM1725.03 977.99 a7.7 7.7 0 1 0 15.4 0 a7.7 7.7 0 1 0 -15.4 0zM1925.08 -61.51 a7.7 7.7 0 1 0 15.4 0 a7.7 7.7 0 1 0 -15.4 0zM1991.77 -23.01 a7.7 7.7 0 1 0 15.4 0 a7.7 7.7 0 1 0 -15.4 0zM1991.77 53.99 a7.7 7.7 0 1 0 15.4 0 a7.7 7.7 0 1 0 -15.4 0zM1858.4 -23.01 a7.7 7.7 0 1 0 15.4 0 a7.7 7.7 0 1 0 -15.4 0zM2058.46 92.49 a7.7 7.7 0 1 0 15.4 0 a7.7 7.7 0 1 0 -15.4 0zM2058.46 169.49 a7.7 7.7 0 1 0 15.4 0 a7.7 7.7 0 1 0 -15.4 0zM1991.77 207.99 a7.7 7.7 0 1 0 15.4 0 a7.7 7.7 0 1 0 -15.4 0zM1991.77 746.99 a7.7 7.7 0 1 0 15.4 0 a7.7 7.7 0 1 0 -15.4 0zM2058.46 785.49 a7.7 7.7 0 1 0 15.4 0 a7.7 7.7 0 1 0 -15.4 0zM2058.46 862.49 a7.7 7.7 0 1 0 15.4 0 a7.7 7.7 0 1 0 -15.4 0zM1991.77 900.99 a7.7 7.7 0 1 0 15.4 0 a7.7 7.7 0 1 0 -15.4 0zM1991.77 977.99 a7.7 7.7 0 1 0 15.4 0 a7.7 7.7 0 1 0 -15.4 0zM1925.08 1016.49 a7.7 7.7 0 1 0 15.4 0 a7.7 7.7 0 1 0 -15.4 0z" fill="rgba(14, 14, 14, 1)"></path><path d="M121.71 101.39L181.46 135.89L181.46 204.89L121.71 239.39L61.95 204.89L61.95 135.89zM121.71 308.39L181.46 342.89L181.46 411.89L121.71 446.39L61.95 411.89L61.95 342.89zM121.71 515.39L181.46 549.89L181.46 618.89L121.71 653.39L61.95 618.89L61.95 549.89zM121.71 722.39L181.46 756.89L181.46 825.89L121.71 860.39L61.95 825.89L61.95 756.89zM61.95 1032.89L121.71 1067.39L121.71 1136.39L61.95 1170.89L2.19 1136.39L2.19 1067.39zM181.46 -2.11L241.22 32.39L241.22 101.39L181.46 135.89L121.71 101.39L121.71 32.39zM181.46 411.89L241.22 446.39L241.22 515.39L181.46 549.89L121.71 515.39L121.71 446.39zM241.22 515.39L300.98 549.89L300.98 618.89L241.22 653.39L181.46 618.89L181.46 549.89zM300.98 204.89L360.74 239.39L360.74 308.39L300.98 342.89L241.22 308.39L241.22 239.39zM300.98 411.89L360.74 446.39L360.74 515.39L300.98 549.89L241.22 515.39L241.22 446.39zM360.74 722.39L420.49 756.89L420.49 825.89L360.74 860.39L300.98 825.89L300.98 756.89zM420.49 204.89L480.25 239.39L480.25 308.39L420.49 342.89L360.74 308.39L360.74 239.39zM480.25 308.39L540.01 342.89L540.01 411.89L480.25 446.39L420.49 411.89L420.49 342.89zM480.25 515.39L540.01 549.89L540.01 618.89L480.25 653.39L420.49 618.89L420.49 549.89zM420.49 825.89L480.25 860.39L480.25 929.39L420.49 963.89L360.74 929.39L360.74 860.39zM540.01 204.89L599.77 239.39L599.77 308.39L540.01 342.89L480.25 308.39L480.25 239.39zM599.77 308.39L659.52 342.89L659.52 411.89L599.77 446.39L540.01 411.89L540.01 342.89zM599.77 722.39L659.52 756.89L659.52 825.89L599.77 860.39L540.01 825.89L540.01 756.89zM719.28 929.39L779.04 963.89L779.04 1032.89L719.28 1067.39L659.52 1032.89L659.52 963.89zM779.04 204.89L838.8 239.39L838.8 308.39L779.04 342.89L719.28 308.39L719.28 239.39zM838.8 515.39L898.55 549.89L898.55 618.89L838.8 653.39L779.04 618.89L779.04 549.89zM838.8 929.39L898.55 963.89L898.55 1032.89L838.8 1067.39L779.04 1032.89L779.04 963.89zM958.31 308.39L1018.07 342.89L1018.07 411.89L958.31 446.39L898.55 411.89L898.55 342.89zM958.31 722.39L1018.07 756.89L1018.07 825.89L958.31 860.39L898.55 825.89L898.55 756.89zM958.31 929.39L1018.07 963.89L1018.07 1032.89L958.31 1067.39L898.55 1032.89L898.55 963.89zM898.55 1032.89L958.31 1067.39L958.31 1136.39L898.55 1170.89L838.8 1136.39L838.8 1067.39zM1018.07 204.89L1077.83 239.39L1077.83 308.39L1018.07 342.89L958.31 308.39L958.31 239.39zM1077.83 308.39L1137.58 342.89L1137.58 411.89L1077.83 446.39L1018.07 411.89L1018.07 342.89zM1018.07 411.89L1077.83 446.39L1077.83 515.39L1018.07 549.89L958.31 515.39L958.31 446.39zM1077.83 722.39L1137.58 756.89L1137.58 825.89L1077.83 860.39L1018.07 825.89L1018.07 756.89zM1077.83 929.39L1137.58 963.89L1137.58 1032.89L1077.83 1067.39L1018.07 1032.89L1018.07 963.89zM1197.34 101.39L1257.1 135.89L1257.1 204.89L1197.34 239.39L1137.58 204.89L1137.58 135.89zM1197.34 308.39L1257.1 342.89L1257.1 411.89L1197.34 446.39L1137.58 411.89L1137.58 342.89zM1137.58 618.89L1197.34 653.39L1197.34 722.39L1137.58 756.89L1077.83 722.39L1077.83 653.39zM1316.86 308.39L1376.61 342.89L1376.61 411.89L1316.86 446.39L1257.1 411.89L1257.1 342.89zM1436.37 308.39L1496.13 342.89L1496.13 411.89L1436.37 446.39L1376.61 411.89L1376.61 342.89zM1376.61 411.89L1436.37 446.39L1436.37 515.39L1376.61 549.89L1316.86 515.39L1316.86 446.39zM1436.37 722.39L1496.13 756.89L1496.13 825.89L1436.37 860.39L1376.61 825.89L1376.61 756.89zM1555.89 101.39L1615.64 135.89L1615.64 204.89L1555.89 239.39L1496.13 204.89L1496.13 135.89zM1496.13 204.89L1555.89 239.39L1555.89 308.39L1496.13 342.89L1436.37 308.39L1436.37 239.39zM1496.13 411.89L1555.89 446.39L1555.89 515.39L1496.13 549.89L1436.37 515.39L1436.37 446.39zM1675.4 308.39L1735.16 342.89L1735.16 411.89L1675.4 446.39L1615.64 411.89L1615.64 342.89zM1615.64 411.89L1675.4 446.39L1675.4 515.39L1615.64 549.89L1555.89 515.39L1555.89 446.39zM1675.4 515.39L1735.16 549.89L1735.16 618.89L1675.4 653.39L1615.64 618.89L1615.64 549.89zM1615.64 618.89L1675.4 653.39L1675.4 722.39L1615.64 756.89L1555.89 722.39L1555.89 653.39zM1735.16 204.89L1794.92 239.39L1794.92 308.39L1735.16 342.89L1675.4 308.39L1675.4 239.39zM1794.92 308.39L1854.67 342.89L1854.67 411.89L1794.92 446.39L1735.16 411.89L1735.16 342.89zM1794.92 515.39L1854.67 549.89L1854.67 618.89L1794.92 653.39L1735.16 618.89L1735.16 549.89zM1794.92 929.39L1854.67 963.89L1854.67 1032.89L1794.92 1067.39L1735.16 1032.89L1735.16 963.89zM1854.67 618.89L1914.43 653.39L1914.43 722.39L1854.67 756.89L1794.92 722.39L1794.92 653.39zM1854.67 825.89L1914.43 860.39L1914.43 929.39L1854.67 963.89L1794.92 929.39L1794.92 860.39zM1914.43 929.39L1974.19 963.89L1974.19 1032.89L1914.43 1067.39L1854.67 1032.89L1854.67 963.89zM2033.95 308.39L2093.7 342.89L2093.7 411.89L2033.95 446.39L1974.19 411.89L1974.19 342.89zM1974.19 411.89L2033.95 446.39L2033.95 515.39L1974.19 549.89L1914.43 515.39L1914.43 446.39zM1974.19 825.89L2033.95 860.39L2033.95 929.39L1974.19 963.89L1914.43 929.39L1914.43 860.39z" stroke="rgba(17, 17, 17, 1)" stroke-width="2"></path></g><defs><mask id="SvgjsMask1243"><rect width="1920" height="1080" fill="#ffffff"></rect></mask></defs></svg>