<svg width="326" height="50" viewBox="0 0 326 50" fill="none" xmlns="http://www.w3.org/2000/svg">
<circle cx="25" cy="25" r="24.5" stroke="white"/>
<circle cx="25" cy="25" r="16.5" stroke="white" stroke-width="7"/>
<circle opacity="0.5" cx="25.5" cy="24.5" r="2" stroke="white"/>
<circle opacity="0.5" cx="25.5" cy="24.5" r="0.5" fill="white"/>
<g filter="url(#filter0_d_142_41)">
<path d="M310.667 25C310.667 27.9455 313.054 30.3333 316 30.3333C318.946 30.3333 321.333 27.9455 321.333 25C321.333 22.0545 318.946 19.6667 316 19.6667C313.054 19.6667 310.667 22.0545 310.667 25ZM57 25V26H59.0234V25V24H57V25ZM63.0703 25V26L67.1172 26V25V24L63.0703 24V25ZM71.1641 25V26H75.2109V25V24H71.1641V25ZM79.2578 25V26H83.3047V25V24H79.2578V25ZM87.3516 25V26H91.3984V25V24H87.3516V25ZM95.4453 25V26H99.4922V25V24H95.4453V25ZM103.539 25V26L107.586 26V25V24L103.539 24V25ZM111.633 25V26H115.68V25V24H111.633V25ZM119.727 25V26L123.773 26V25V24L119.727 24V25ZM127.82 25V26H131.867V25V24H127.82V25ZM135.914 25V26L139.961 26V25V24L135.914 24V25ZM144.008 25V26H148.055V25V24H144.008V25ZM152.102 25V26H156.148V25V24H152.102V25ZM160.195 25V26H164.242V25V24H160.195V25ZM168.289 25V26H172.336V25V24H168.289V25ZM176.383 25V26H180.43V25V24H176.383V25ZM184.477 25V26H188.523V25V24H184.477V25ZM192.57 25V26L196.617 26V25V24L192.57 24V25ZM200.664 25V26H204.711V25V24H200.664V25ZM208.758 25V26L212.805 26V25V24L208.758 24V25ZM216.852 25V26H220.898V25V24H216.852V25ZM224.945 25V26H228.992V25V24H224.945V25ZM233.039 25V26H237.086V25V24H233.039V25ZM241.133 25V26H245.18V25V24H241.133V25ZM249.227 25V26L253.273 26V25V24L249.227 24V25ZM257.32 25V26H261.367V25V24H257.32V25ZM265.414 25V26L269.461 26V25V24L265.414 24V25ZM273.508 25V26H277.555V25V24H273.508V25ZM281.602 25V26L285.648 26V25V24L281.602 24V25ZM289.695 25V26H293.742V25V24H289.695V25ZM297.789 25V26H301.836V25V24H297.789V25ZM305.883 25V26H309.93V25V24H305.883V25ZM313.977 25V26H316V25V24H313.977V25ZM310.667 25C310.667 27.9455 313.054 30.3333 316 30.3333C318.946 30.3333 321.333 27.9455 321.333 25C321.333 22.0545 318.946 19.6667 316 19.6667C313.054 19.6667 310.667 22.0545 310.667 25ZM57 25V26H59.0234V25V24H57V25ZM63.0703 25V26L67.1172 26V25V24L63.0703 24V25ZM71.1641 25V26H75.2109V25V24H71.1641V25ZM79.2578 25V26H83.3047V25V24H79.2578V25ZM87.3516 25V26H91.3984V25V24H87.3516V25ZM95.4453 25V26H99.4922V25V24H95.4453V25ZM103.539 25V26L107.586 26V25V24L103.539 24V25ZM111.633 25V26H115.68V25V24H111.633V25ZM119.727 25V26L123.773 26V25V24L119.727 24V25ZM127.82 25V26H131.867V25V24H127.82V25ZM135.914 25V26L139.961 26V25V24L135.914 24V25ZM144.008 25V26H148.055V25V24H144.008V25ZM152.102 25V26H156.148V25V24H152.102V25ZM160.195 25V26H164.242V25V24H160.195V25ZM168.289 25V26H172.336V25V24H168.289V25ZM176.383 25V26H180.43V25V24H176.383V25ZM184.477 25V26H188.523V25V24H184.477V25ZM192.57 25V26L196.617 26V25V24L192.57 24V25ZM200.664 25V26H204.711V25V24H200.664V25ZM208.758 25V26L212.805 26V25V24L208.758 24V25ZM216.852 25V26H220.898V25V24H216.852V25ZM224.945 25V26H228.992V25V24H224.945V25ZM233.039 25V26H237.086V25V24H233.039V25ZM241.133 25V26H245.18V25V24H241.133V25ZM249.227 25V26L253.273 26V25V24L249.227 24V25ZM257.32 25V26H261.367V25V24H257.32V25ZM265.414 25V26L269.461 26V25V24L265.414 24V25ZM273.508 25V26H277.555V25V24H273.508V25ZM281.602 25V26L285.648 26V25V24L281.602 24V25ZM289.695 25V26H293.742V25V24H289.695V25ZM297.789 25V26H301.836V25V24H297.789V25ZM305.883 25V26H309.93V25V24H305.883V25ZM313.977 25V26H316V25V24H313.977V25Z" fill="white"/>
</g>
<defs>
<filter id="filter0_d_142_41" x="53" y="19.667" width="272.333" height="18.666" filterUnits="userSpaceOnUse" color-interpolation-filters="sRGB">
<feFlood flood-opacity="0" result="BackgroundImageFix"/>
<feColorMatrix in="SourceAlpha" type="matrix" values="0 0 0 0 0 0 0 0 0 0 0 0 0 0 0 0 0 0 127 0" result="hardAlpha"/>
<feOffset dy="4"/>
<feGaussianBlur stdDeviation="2"/>
<feComposite in2="hardAlpha" operator="out"/>
<feColorMatrix type="matrix" values="0 0 0 0 0 0 0 0 0 0 0 0 0 0 0 0 0 0 0.25 0"/>
<feBlend mode="normal" in2="BackgroundImageFix" result="effect1_dropShadow_142_41"/>
<feBlend mode="normal" in="SourceGraphic" in2="effect1_dropShadow_142_41" result="shape"/>
</filter>
</defs>
</svg>
